<?xml version="1.0" encoding="utf-8"?>
<!-- Generator: Adobe Illustrator 21.1.0, SVG Export Plug-In . SVG Version: 6.00 Build 0)  -->
<svg version="1.1" id="Layer_1" xmlns="http://www.w3.org/2000/svg" xmlns:xlink="http://www.w3.org/1999/xlink" x="0px" y="0px"
	 viewBox="0 0 783 782" style="enable-background:new 0 0 783 782;" xml:space="preserve">
<style type="text/css">
	.st0{stroke:#000000;}
	.st1{fill:none;stroke:#000000;}
	.st2{fill:#00FF00;stroke:#00FF00;}
	.st3{fill:#FFD700;stroke:#FFD700;}
	.st4{fill:none;stroke:#FFD700;}
	.st5{fill:#FF0000;stroke:#FF0000;}
</style>
<circle class="st0" cx="405" cy="378" r="3"/>
<circle class="st0" cx="665" cy="14" r="3"/>
<circle class="st0" cx="613" cy="40" r="3"/>
<circle class="st0" cx="561" cy="378" r="3"/>
<circle class="st0" cx="561" cy="118" r="3"/>
<circle class="st0" cx="613" cy="326" r="3"/>
<circle class="st0" cx="249" cy="430" r="3"/>
<circle class="st0" cx="301" cy="742" r="3"/>
<circle class="st0" cx="197" cy="352" r="3"/>
<circle class="st0" cx="561" cy="326" r="3"/>
<circle class="st0" cx="613" cy="456" r="3"/>
<circle class="st0" cx="145" cy="742" r="3"/>
<circle class="st0" cx="587" cy="768" r="3"/>
<circle class="st0" cx="587" cy="326" r="3"/>
<circle class="st0" cx="41" cy="508" r="3"/>
<circle class="st0" cx="145" cy="92" r="3"/>
<circle class="st0" cx="93" cy="638" r="3"/>
<circle class="st0" cx="717" cy="690" r="3"/>
<circle class="st0" cx="769" cy="742" r="3"/>
<circle class="st0" cx="67" cy="456" r="3"/>
<circle class="st0" cx="301" cy="352" r="3"/>
<circle class="st0" cx="145" cy="768" r="3"/>
<circle class="st0" cx="15" cy="196" r="3"/>
<circle class="st0" cx="379" cy="92" r="3"/>
<circle class="st0" cx="15" cy="170" r="3"/>
<circle class="st0" cx="15" cy="300" r="3"/>
<circle class="st0" cx="327" cy="274" r="3"/>
<circle class="st0" cx="509" cy="690" r="3"/>
<circle class="st0" cx="119" cy="482" r="3"/>
<circle class="st0" cx="379" cy="534" r="3"/>
<circle class="st0" cx="769" cy="14" r="3"/>
<circle class="st0" cx="41" cy="170" r="3"/>
<circle class="st0" cx="197" cy="222" r="3"/>
<circle class="st0" cx="119" cy="66" r="3"/>
<circle class="st0" cx="249" cy="638" r="3"/>
<circle class="st0" cx="275" cy="326" r="3"/>
<circle class="st0" cx="483" cy="456" r="3"/>
<circle class="st0" cx="15" cy="66" r="3"/>
<circle class="st0" cx="15" cy="534" r="3"/>
<circle class="st0" cx="353" cy="742" r="3"/>
<circle class="st0" cx="743" cy="248" r="3"/>
<circle class="st0" cx="171" cy="742" r="3"/>
<circle class="st0" cx="743" cy="768" r="3"/>
<circle class="st0" cx="613" cy="560" r="3"/>
<circle class="st0" cx="327" cy="560" r="3"/>
<circle class="st0" cx="561" cy="40" r="3"/>
<circle class="st0" cx="93" cy="430" r="3"/>
<circle class="st0" cx="535" cy="560" r="3"/>
<circle class="st0" cx="613" cy="66" r="3"/>
<circle class="st0" cx="509" cy="222" r="3"/>
<circle class="st0" cx="15" cy="560" r="3"/>
<circle class="st0" cx="431" cy="404" r="3"/>
<circle class="st0" cx="561" cy="92" r="3"/>
<circle class="st0" cx="301" cy="430" r="3"/>
<circle class="st0" cx="431" cy="274" r="3"/>
<circle class="st0" cx="275" cy="482" r="3"/>
<circle class="st0" cx="743" cy="456" r="3"/>
<circle class="st0" cx="301" cy="612" r="3"/>
<circle class="st0" cx="15" cy="14" r="3"/>
<circle class="st0" cx="67" cy="612" r="3"/>
<circle class="st0" cx="691" cy="352" r="3"/>
<circle class="st0" cx="327" cy="196" r="3"/>
<circle class="st0" cx="353" cy="482" r="3"/>
<circle class="st0" cx="41" cy="456" r="3"/>
<circle class="st0" cx="275" cy="638" r="3"/>
<circle class="st0" cx="483" cy="716" r="3"/>
<circle class="st0" cx="379" cy="690" r="3"/>
<circle class="st0" cx="431" cy="456" r="3"/>
<circle class="st0" cx="769" cy="248" r="3"/>
<circle class="st0" cx="691" cy="690" r="3"/>
<circle class="st0" cx="327" cy="92" r="3"/>
<circle class="st0" cx="769" cy="300" r="3"/>
<circle class="st0" cx="509" cy="144" r="3"/>
<circle class="st0" cx="41" cy="560" r="3"/>
<circle class="st0" cx="197" cy="118" r="3"/>
<circle class="st0" cx="665" cy="586" r="3"/>
<circle class="st0" cx="119" cy="742" r="3"/>
<circle class="st0" cx="431" cy="638" r="3"/>
<circle class="st0" cx="691" cy="742" r="3"/>
<circle class="st0" cx="405" cy="534" r="3"/>
<circle class="st0" cx="145" cy="482" r="3"/>
<circle class="st0" cx="769" cy="118" r="3"/>
<circle class="st0" cx="171" cy="404" r="3"/>
<circle class="st0" cx="665" cy="742" r="3"/>
<circle class="st0" cx="639" cy="508" r="3"/>
<circle class="st0" cx="353" cy="196" r="3"/>
<circle class="st0" cx="405" cy="300" r="3"/>
<circle class="st0" cx="249" cy="612" r="3"/>
<circle class="st0" cx="613" cy="508" r="3"/>
<circle class="st0" cx="535" cy="716" r="3"/>
<circle class="st0" cx="41" cy="66" r="3"/>
<circle class="st0" cx="327" cy="456" r="3"/>
<circle class="st0" cx="197" cy="300" r="3"/>
<circle class="st0" cx="379" cy="664" r="3"/>
<circle class="st0" cx="301" cy="638" r="3"/>
<circle class="st0" cx="119" cy="248" r="3"/>
<circle class="st0" cx="717" cy="300" r="3"/>
<circle class="st0" cx="509" cy="768" r="3"/>
<circle class="st0" cx="639" cy="456" r="3"/>
<circle class="st0" cx="535" cy="768" r="3"/>
<circle class="st0" cx="41" cy="690" r="3"/>
<circle class="st0" cx="119" cy="222" r="3"/>
<circle class="st0" cx="353" cy="430" r="3"/>
<circle class="st0" cx="249" cy="742" r="3"/>
<circle class="st0" cx="171" cy="482" r="3"/>
<circle class="st0" cx="587" cy="690" r="3"/>
<circle class="st0" cx="405" cy="66" r="3"/>
<circle class="st0" cx="379" cy="742" r="3"/>
<circle class="st0" cx="639" cy="560" r="3"/>
<circle class="st0" cx="275" cy="456" r="3"/>
<circle class="st0" cx="301" cy="456" r="3"/>
<circle class="st0" cx="717" cy="456" r="3"/>
<circle class="st0" cx="743" cy="638" r="3"/>
<circle class="st0" cx="561" cy="274" r="3"/>
<circle class="st0" cx="353" cy="716" r="3"/>
<circle class="st0" cx="119" cy="14" r="3"/>
<circle class="st0" cx="665" cy="664" r="3"/>
<circle class="st0" cx="15" cy="456" r="3"/>
<circle class="st0" cx="93" cy="92" r="3"/>
<circle class="st0" cx="145" cy="456" r="3"/>
<circle class="st0" cx="41" cy="14" r="3"/>
<circle class="st0" cx="691" cy="326" r="3"/>
<circle class="st0" cx="431" cy="118" r="3"/>
<circle class="st0" cx="405" cy="274" r="3"/>
<circle class="st0" cx="639" cy="196" r="3"/>
<circle class="st0" cx="483" cy="326" r="3"/>
<circle class="st0" cx="483" cy="690" r="3"/>
<circle class="st0" cx="275" cy="118" r="3"/>
<circle class="st0" cx="223" cy="664" r="3"/>
<circle class="st0" cx="67" cy="768" r="3"/>
<circle class="st0" cx="275" cy="248" r="3"/>
<circle class="st0" cx="743" cy="612" r="3"/>
<circle class="st0" cx="249" cy="716" r="3"/>
<circle class="st0" cx="353" cy="118" r="3"/>
<circle class="st0" cx="561" cy="508" r="3"/>
<circle class="st0" cx="67" cy="664" r="3"/>
<circle class="st0" cx="15" cy="248" r="3"/>
<circle class="st0" cx="665" cy="300" r="3"/>
<circle class="st0" cx="93" cy="118" r="3"/>
<circle class="st0" cx="691" cy="274" r="3"/>
<circle class="st0" cx="613" cy="482" r="3"/>
<circle class="st0" cx="535" cy="248" r="3"/>
<circle class="st0" cx="509" cy="508" r="3"/>
<circle class="st0" cx="119" cy="586" r="3"/>
<circle class="st0" cx="145" cy="638" r="3"/>
<circle class="st0" cx="15" cy="222" r="3"/>
<circle class="st0" cx="483" cy="222" r="3"/>
<circle class="st0" cx="197" cy="404" r="3"/>
<circle class="st0" cx="691" cy="664" r="3"/>
<circle class="st0" cx="483" cy="92" r="3"/>
<circle class="st0" cx="119" cy="378" r="3"/>
<circle class="st0" cx="171" cy="144" r="3"/>
<circle class="st0" cx="119" cy="170" r="3"/>
<circle class="st0" cx="457" cy="612" r="3"/>
<circle class="st0" cx="717" cy="482" r="3"/>
<circle class="st0" cx="249" cy="300" r="3"/>
<circle class="st0" cx="743" cy="560" r="3"/>
<circle class="st0" cx="301" cy="508" r="3"/>
<circle class="st0" cx="405" cy="560" r="3"/>
<circle class="st0" cx="587" cy="92" r="3"/>
<circle class="st0" cx="639" cy="742" r="3"/>
<circle class="st0" cx="301" cy="170" r="3"/>
<circle class="st0" cx="509" cy="742" r="3"/>
<circle class="st0" cx="717" cy="352" r="3"/>
<circle class="st0" cx="249" cy="586" r="3"/>
<circle class="st0" cx="535" cy="118" r="3"/>
<circle class="st0" cx="67" cy="586" r="3"/>
<circle class="st0" cx="691" cy="222" r="3"/>
<circle class="st0" cx="275" cy="352" r="3"/>
<circle class="st0" cx="67" cy="300" r="3"/>
<circle class="st0" cx="639" cy="92" r="3"/>
<circle class="st0" cx="405" cy="716" r="3"/>
<circle class="st0" cx="223" cy="508" r="3"/>
<circle class="st0" cx="119" cy="92" r="3"/>
<circle class="st0" cx="145" cy="664" r="3"/>
<circle class="st0" cx="665" cy="378" r="3"/>
<circle class="st0" cx="67" cy="716" r="3"/>
<circle class="st0" cx="561" cy="716" r="3"/>
<circle class="st0" cx="405" cy="508" r="3"/>
<circle class="st0" cx="353" cy="638" r="3"/>
<circle class="st0" cx="431" cy="560" r="3"/>
<circle class="st0" cx="587" cy="170" r="3"/>
<circle class="st0" cx="457" cy="92" r="3"/>
<circle class="st0" cx="613" cy="378" r="3"/>
<circle class="st0" cx="249" cy="66" r="3"/>
<circle class="st0" cx="249" cy="378" r="3"/>
<circle class="st0" cx="223" cy="482" r="3"/>
<circle class="st0" cx="717" cy="404" r="3"/>
<circle class="st0" cx="665" cy="170" r="3"/>
<circle class="st0" cx="145" cy="326" r="3"/>
<circle class="st0" cx="223" cy="716" r="3"/>
<circle class="st0" cx="223" cy="638" r="3"/>
<circle class="st0" cx="431" cy="378" r="3"/>
<circle class="st0" cx="405" cy="768" r="3"/>
<circle class="st0" cx="457" cy="248" r="3"/>
<circle class="st0" cx="327" cy="690" r="3"/>
<circle class="st0" cx="509" cy="40" r="3"/>
<circle class="st0" cx="535" cy="378" r="3"/>
<circle class="st0" cx="145" cy="690" r="3"/>
<circle class="st0" cx="119" cy="274" r="3"/>
<circle class="st0" cx="249" cy="482" r="3"/>
<circle class="st0" cx="587" cy="40" r="3"/>
<circle class="st0" cx="405" cy="326" r="3"/>
<circle class="st0" cx="561" cy="456" r="3"/>
<circle class="st0" cx="119" cy="430" r="3"/>
<circle class="st0" cx="743" cy="716" r="3"/>
<circle class="st0" cx="223" cy="14" r="3"/>
<circle class="st0" cx="743" cy="690" r="3"/>
<circle class="st0" cx="483" cy="300" r="3"/>
<circle class="st0" cx="379" cy="196" r="3"/>
<circle class="st0" cx="743" cy="66" r="3"/>
<circle class="st0" cx="15" cy="118" r="3"/>
<circle class="st0" cx="275" cy="430" r="3"/>
<circle class="st0" cx="743" cy="404" r="3"/>
<circle class="st0" cx="327" cy="768" r="3"/>
<circle class="st0" cx="93" cy="352" r="3"/>
<circle class="st0" cx="509" cy="430" r="3"/>
<circle class="st0" cx="691" cy="612" r="3"/>
<circle class="st0" cx="665" cy="456" r="3"/>
<circle class="st0" cx="587" cy="222" r="3"/>
<circle class="st0" cx="171" cy="14" r="3"/>
<circle class="st0" cx="327" cy="300" r="3"/>
<circle class="st0" cx="639" cy="14" r="3"/>
<circle class="st0" cx="561" cy="690" r="3"/>
<circle class="st0" cx="613" cy="196" r="3"/>
<circle class="st0" cx="145" cy="248" r="3"/>
<circle class="st0" cx="353" cy="14" r="3"/>
<circle class="st0" cx="93" cy="326" r="3"/>
<circle class="st0" cx="639" cy="352" r="3"/>
<circle class="st0" cx="561" cy="196" r="3"/>
<circle class="st0" cx="327" cy="326" r="3"/>
<circle class="st0" cx="145" cy="66" r="3"/>
<circle class="st0" cx="379" cy="378" r="3"/>
<circle class="st0" cx="457" cy="508" r="3"/>
<circle class="st0" cx="665" cy="560" r="3"/>
<circle class="st0" cx="639" cy="482" r="3"/>
<circle class="st0" cx="275" cy="144" r="3"/>
<circle class="st0" cx="509" cy="66" r="3"/>
<circle class="st0" cx="587" cy="716" r="3"/>
<circle class="st0" cx="535" cy="222" r="3"/>
<circle class="st0" cx="275" cy="768" r="3"/>
<circle class="st0" cx="41" cy="144" r="3"/>
<circle class="st0" cx="249" cy="664" r="3"/>
<circle class="st0" cx="769" cy="404" r="3"/>
<circle class="st0" cx="379" cy="482" r="3"/>
<circle class="st0" cx="743" cy="586" r="3"/>
<circle class="st0" cx="457" cy="378" r="3"/>
<circle class="st0" cx="275" cy="14" r="3"/>
<circle class="st0" cx="431" cy="40" r="3"/>
<circle class="st0" cx="93" cy="690" r="3"/>
<circle class="st0" cx="67" cy="14" r="3"/>
<circle class="st0" cx="301" cy="560" r="3"/>
<circle class="st0" cx="197" cy="664" r="3"/>
<circle class="st0" cx="41" cy="222" r="3"/>
<circle class="st0" cx="41" cy="248" r="3"/>
<circle class="st0" cx="509" cy="638" r="3"/>
<circle class="st0" cx="717" cy="118" r="3"/>
<circle class="st0" cx="613" cy="222" r="3"/>
<circle class="st0" cx="67" cy="508" r="3"/>
<circle class="st0" cx="717" cy="742" r="3"/>
<circle class="st0" cx="613" cy="716" r="3"/>
<circle class="st0" cx="249" cy="144" r="3"/>
<circle class="st0" cx="743" cy="430" r="3"/>
<circle class="st0" cx="327" cy="508" r="3"/>
<circle class="st0" cx="665" cy="612" r="3"/>
<circle class="st0" cx="197" cy="144" r="3"/>
<circle class="st0" cx="587" cy="482" r="3"/>
<circle class="st0" cx="379" cy="638" r="3"/>
<circle class="st0" cx="223" cy="586" r="3"/>
<circle class="st0" cx="327" cy="716" r="3"/>
<circle class="st0" cx="613" cy="144" r="3"/>
<circle class="st0" cx="743" cy="534" r="3"/>
<circle class="st0" cx="483" cy="430" r="3"/>
<circle class="st0" cx="145" cy="612" r="3"/>
<circle class="st0" cx="717" cy="560" r="3"/>
<circle class="st0" cx="353" cy="222" r="3"/>
<circle class="st0" cx="41" cy="196" r="3"/>
<circle class="st0" cx="561" cy="612" r="3"/>
<circle class="st0" cx="119" cy="352" r="3"/>
<circle class="st0" cx="509" cy="274" r="3"/>
<circle class="st0" cx="405" cy="14" r="3"/>
<circle class="st0" cx="249" cy="352" r="3"/>
<circle class="st0" cx="67" cy="534" r="3"/>
<circle class="st0" cx="15" cy="482" r="3"/>
<circle class="st0" cx="327" cy="118" r="3"/>
<circle class="st0" cx="483" cy="586" r="3"/>
<circle class="st0" cx="405" cy="482" r="3"/>
<circle class="st0" cx="665" cy="118" r="3"/>
<circle class="st0" cx="483" cy="612" r="3"/>
<circle class="st0" cx="379" cy="118" r="3"/>
<circle class="st0" cx="639" cy="430" r="3"/>
<circle class="st0" cx="665" cy="768" r="3"/>
<circle class="st0" cx="457" cy="560" r="3"/>
<circle class="st0" cx="301" cy="482" r="3"/>
<circle class="st0" cx="743" cy="378" r="3"/>
<circle class="st0" cx="535" cy="170" r="3"/>
<circle class="st0" cx="197" cy="560" r="3"/>
<circle class="st0" cx="301" cy="118" r="3"/>
<circle class="st0" cx="483" cy="248" r="3"/>
<circle class="st0" cx="639" cy="404" r="3"/>
<circle class="st0" cx="197" cy="482" r="3"/>
<circle class="st0" cx="717" cy="222" r="3"/>
<circle class="st0" cx="717" cy="92" r="3"/>
<circle class="st0" cx="457" cy="690" r="3"/>
<circle class="st0" cx="691" cy="586" r="3"/>
<circle class="st0" cx="457" cy="170" r="3"/>
<circle class="st0" cx="275" cy="690" r="3"/>
<circle class="st0" cx="145" cy="118" r="3"/>
<circle class="st0" cx="769" cy="560" r="3"/>
<circle class="st0" cx="67" cy="92" r="3"/>
<circle class="st0" cx="405" cy="404" r="3"/>
<circle class="st0" cx="41" cy="534" r="3"/>
<circle class="st0" cx="509" cy="170" r="3"/>
<circle class="st0" cx="613" cy="404" r="3"/>
<circle class="st0" cx="769" cy="638" r="3"/>
<circle class="st0" cx="769" cy="690" r="3"/>
<circle class="st0" cx="171" cy="66" r="3"/>
<circle class="st0" cx="275" cy="300" r="3"/>
<circle class="st0" cx="431" cy="222" r="3"/>
<circle class="st0" cx="353" cy="664" r="3"/>
<circle class="st0" cx="15" cy="742" r="3"/>
<circle class="st0" cx="587" cy="508" r="3"/>
<circle class="st0" cx="717" cy="248" r="3"/>
<circle class="st0" cx="717" cy="326" r="3"/>
<circle class="st0" cx="353" cy="404" r="3"/>
<circle class="st0" cx="197" cy="92" r="3"/>
<circle class="st0" cx="431" cy="14" r="3"/>
<circle class="st0" cx="665" cy="248" r="3"/>
<circle class="st0" cx="223" cy="92" r="3"/>
<circle class="st0" cx="353" cy="274" r="3"/>
<circle class="st0" cx="379" cy="222" r="3"/>
<circle class="st0" cx="171" cy="92" r="3"/>
<circle class="st0" cx="483" cy="768" r="3"/>
<circle class="st0" cx="769" cy="664" r="3"/>
<circle class="st0" cx="223" cy="612" r="3"/>
<circle class="st0" cx="509" cy="404" r="3"/>
<circle class="st0" cx="613" cy="742" r="3"/>
<circle class="st0" cx="301" cy="14" r="3"/>
<circle class="st0" cx="223" cy="456" r="3"/>
<circle class="st0" cx="717" cy="664" r="3"/>
<circle class="st0" cx="691" cy="534" r="3"/>
<circle class="st0" cx="743" cy="14" r="3"/>
<circle class="st0" cx="223" cy="742" r="3"/>
<circle class="st0" cx="613" cy="248" r="3"/>
<circle class="st0" cx="171" cy="716" r="3"/>
<circle class="st0" cx="587" cy="196" r="3"/>
<circle class="st0" cx="587" cy="378" r="3"/>
<circle class="st0" cx="587" cy="430" r="3"/>
<circle class="st0" cx="691" cy="248" r="3"/>
<circle class="st0" cx="431" cy="92" r="3"/>
<circle class="st0" cx="431" cy="300" r="3"/>
<circle class="st0" cx="405" cy="222" r="3"/>
<circle class="st0" cx="405" cy="92" r="3"/>
<circle class="st0" cx="405" cy="144" r="3"/>
<circle class="st0" cx="93" cy="170" r="3"/>
<circle class="st0" cx="483" cy="274" r="3"/>
<circle class="st0" cx="483" cy="144" r="3"/>
<circle class="st0" cx="145" cy="170" r="3"/>
<circle class="st0" cx="717" cy="716" r="3"/>
<circle class="st0" cx="717" cy="378" r="3"/>
<circle class="st0" cx="249" cy="326" r="3"/>
<circle class="st0" cx="171" cy="326" r="3"/>
<circle class="st0" cx="639" cy="300" r="3"/>
<circle class="st0" cx="639" cy="716" r="3"/>
<circle class="st0" cx="223" cy="560" r="3"/>
<circle class="st0" cx="223" cy="66" r="3"/>
<circle class="st0" cx="301" cy="690" r="3"/>
<circle class="st0" cx="301" cy="66" r="3"/>
<circle class="st0" cx="561" cy="430" r="3"/>
<circle class="st0" cx="353" cy="144" r="3"/>
<circle class="st0" cx="353" cy="560" r="3"/>
<circle class="st0" cx="353" cy="508" r="3"/>
<circle class="st0" cx="379" cy="716" r="3"/>
<circle class="st0" cx="379" cy="274" r="3"/>
<circle class="st0" cx="379" cy="326" r="3"/>
<circle class="st0" cx="379" cy="508" r="3"/>
<circle class="st0" cx="457" cy="274" r="3"/>
<circle class="st0" cx="457" cy="300" r="3"/>
<circle class="st0" cx="275" cy="560" r="3"/>
<circle class="st0" cx="275" cy="170" r="3"/>
<circle class="st0" cx="327" cy="378" r="3"/>
<circle class="st0" cx="509" cy="456" r="3"/>
<circle class="st0" cx="509" cy="300" r="3"/>
<circle class="st0" cx="119" cy="612" r="3"/>
<circle class="st0" cx="119" cy="638" r="3"/>
<line class="st1" x1="145" y1="170" x2="119" y2="170"/>
<line class="st1" x1="561" y1="430" x2="561" y2="456"/>
<line class="st1" x1="509" y1="300" x2="509" y2="274"/>
<line class="st1" x1="249" y1="482" x2="275" y2="482"/>
<line class="st1" x1="483" y1="274" x2="509" y2="274"/>
<line class="st1" x1="431" y1="300" x2="405" y2="300"/>
<line class="st1" x1="301" y1="40" x2="301" y2="14"/>
<line class="st1" x1="353" y1="430" x2="353" y2="404"/>
<line class="st1" x1="405" y1="222" x2="431" y2="222"/>
<line class="st1" x1="353" y1="508" x2="353" y2="482"/>
<line class="st1" x1="691" y1="248" x2="665" y2="248"/>
<line class="st1" x1="223" y1="638" x2="223" y2="612"/>
<line class="st1" x1="353" y1="560" x2="327" y2="560"/>
<line class="st1" x1="379" y1="118" x2="379" y2="92"/>
<line class="st1" x1="223" y1="66" x2="197" y2="66"/>
<line class="st1" x1="717" y1="248" x2="743" y2="248"/>
<line class="st1" x1="509" y1="690" x2="509" y2="664"/>
<line class="st1" x1="743" y1="456" x2="743" y2="430"/>
<line class="st1" x1="353" y1="638" x2="379" y2="638"/>
<line class="st1" x1="15" y1="196" x2="15" y2="170"/>
<line class="st1" x1="41" y1="170" x2="41" y2="144"/>
<line class="st1" x1="691" y1="248" x2="691" y2="222"/>
<line class="st1" x1="483" y1="456" x2="483" y2="430"/>
<line class="st1" x1="353" y1="690" x2="353" y2="664"/>
<line class="st1" x1="275" y1="118" x2="301" y2="118"/>
<line class="st1" x1="431" y1="378" x2="431" y2="352"/>
<line class="st1" x1="639" y1="716" x2="613" y2="716"/>
<line class="st1" x1="431" y1="92" x2="431" y2="118"/>
<line class="st1" x1="717" y1="716" x2="717" y2="690"/>
<line class="st1" x1="93" y1="92" x2="119" y2="92"/>
<line class="st1" x1="483" y1="768" x2="509" y2="768"/>
<line class="st1" x1="171" y1="66" x2="197" y2="66"/>
<line class="st1" x1="301" y1="456" x2="327" y2="456"/>
<line class="st1" x1="119" y1="66" x2="145" y2="66"/>
<line class="st1" x1="223" y1="716" x2="249" y2="716"/>
<line class="st1" x1="249" y1="326" x2="249" y2="352"/>
<line class="st1" x1="405" y1="326" x2="405" y2="300"/>
<line class="st1" x1="613" y1="404" x2="613" y2="378"/>
<line class="st1" x1="613" y1="742" x2="613" y2="716"/>
<line class="st1" x1="457" y1="274" x2="431" y2="274"/>
<line class="st1" x1="197" y1="170" x2="197" y2="144"/>
<line class="st1" x1="119" y1="638" x2="145" y2="638"/>
<line class="st1" x1="353" y1="144" x2="353" y2="170"/>
<line class="st1" x1="197" y1="92" x2="223" y2="92"/>
<line class="st1" x1="665" y1="144" x2="665" y2="118"/>
<line class="st1" x1="41" y1="560" x2="41" y2="534"/>
<line class="st1" x1="691" y1="716" x2="691" y2="690"/>
<line class="st1" x1="405" y1="560" x2="405" y2="534"/>
<line class="st1" x1="405" y1="404" x2="405" y2="378"/>
<line class="st1" x1="717" y1="482" x2="717" y2="456"/>
<line class="st1" x1="587" y1="40" x2="613" y2="40"/>
<line class="st1" x1="327" y1="118" x2="327" y2="92"/>
<line class="st1" x1="275" y1="352" x2="301" y2="352"/>
<line class="st1" x1="379" y1="508" x2="379" y2="534"/>
<line class="st1" x1="275" y1="14" x2="301" y2="14"/>
<line class="st1" x1="587" y1="742" x2="587" y2="716"/>
<line class="st1" x1="457" y1="612" x2="483" y2="612"/>
<line class="st1" x1="691" y1="352" x2="691" y2="326"/>
<line class="st1" x1="405" y1="92" x2="379" y2="92"/>
<line class="st1" x1="15" y1="144" x2="15" y2="118"/>
<line class="st1" x1="171" y1="742" x2="171" y2="716"/>
<line class="st1" x1="145" y1="508" x2="145" y2="482"/>
<line class="st1" x1="15" y1="222" x2="15" y2="196"/>
<line class="st1" x1="301" y1="560" x2="327" y2="560"/>
<line class="st1" x1="665" y1="456" x2="665" y2="430"/>
<line class="st1" x1="457" y1="274" x2="457" y2="248"/>
<line class="st1" x1="301" y1="690" x2="275" y2="690"/>
<line class="st1" x1="379" y1="222" x2="379" y2="196"/>
<line class="st1" x1="483" y1="716" x2="483" y2="690"/>
<line class="st1" x1="145" y1="768" x2="145" y2="742"/>
<line class="st1" x1="717" y1="716" x2="743" y2="716"/>
<line class="st1" x1="379" y1="274" x2="353" y2="274"/>
<line class="st1" x1="431" y1="586" x2="431" y2="560"/>
<line class="st1" x1="41" y1="222" x2="41" y2="196"/>
<line class="st1" x1="743" y1="638" x2="743" y2="612"/>
<line class="st1" x1="405" y1="92" x2="405" y2="66"/>
<line class="st1" x1="171" y1="326" x2="145" y2="326"/>
<line class="st1" x1="717" y1="274" x2="717" y2="248"/>
<line class="st1" x1="717" y1="560" x2="743" y2="560"/>
<line class="st1" x1="509" y1="456" x2="509" y2="430"/>
<line class="st1" x1="587" y1="196" x2="587" y2="222"/>
<line class="st1" x1="483" y1="274" x2="483" y2="300"/>
<line class="st1" x1="483" y1="222" x2="509" y2="222"/>
<line class="st1" x1="41" y1="66" x2="41" y2="40"/>
<line class="st1" x1="743" y1="534" x2="743" y2="508"/>
<line class="st1" x1="717" y1="378" x2="717" y2="352"/>
<line class="st1" x1="197" y1="118" x2="197" y2="92"/>
<line class="st1" x1="639" y1="456" x2="639" y2="430"/>
<line class="st1" x1="171" y1="92" x2="171" y2="66"/>
<line class="st1" x1="587" y1="768" x2="587" y2="742"/>
<line class="st1" x1="405" y1="508" x2="405" y2="482"/>
<line class="st1" x1="665" y1="586" x2="665" y2="560"/>
<line class="st1" x1="275" y1="638" x2="301" y2="638"/>
<line class="st1" x1="119" y1="404" x2="119" y2="378"/>
<line class="st1" x1="405" y1="222" x2="379" y2="222"/>
<line class="st1" x1="379" y1="326" x2="405" y2="326"/>
<line class="st1" x1="15" y1="508" x2="15" y2="482"/>
<line class="st1" x1="379" y1="274" x2="405" y2="274"/>
<line class="st1" x1="665" y1="170" x2="665" y2="144"/>
<line class="st1" x1="379" y1="508" x2="379" y2="482"/>
<line class="st1" x1="197" y1="664" x2="197" y2="638"/>
<line class="st1" x1="587" y1="482" x2="613" y2="482"/>
<line class="st1" x1="379" y1="716" x2="353" y2="716"/>
<line class="st1" x1="509" y1="300" x2="483" y2="300"/>
<line class="st1" x1="743" y1="248" x2="769" y2="248"/>
<line class="st1" x1="93" y1="170" x2="119" y2="170"/>
<line class="st1" x1="639" y1="482" x2="639" y2="456"/>
<line class="st1" x1="353" y1="508" x2="327" y2="508"/>
<line class="st1" x1="717" y1="326" x2="717" y2="300"/>
<line class="st1" x1="379" y1="716" x2="379" y2="742"/>
<line class="st1" x1="717" y1="118" x2="717" y2="92"/>
<line class="st1" x1="275" y1="716" x2="275" y2="690"/>
<line class="st1" x1="743" y1="586" x2="743" y2="560"/>
<line class="st1" x1="691" y1="248" x2="691" y2="274"/>
<line class="st1" x1="353" y1="144" x2="353" y2="118"/>
<line class="st1" x1="223" y1="560" x2="197" y2="560"/>
<line class="st1" x1="223" y1="482" x2="223" y2="456"/>
<line class="st1" x1="613" y1="404" x2="639" y2="404"/>
<line class="st1" x1="717" y1="716" x2="717" y2="742"/>
<line class="st1" x1="275" y1="170" x2="275" y2="144"/>
<line class="st1" x1="223" y1="560" x2="223" y2="586"/>
<line class="st1" x1="171" y1="170" x2="171" y2="144"/>
<line class="st1" x1="691" y1="716" x2="691" y2="742"/>
<line class="st1" x1="509" y1="768" x2="509" y2="742"/>
<line class="st1" x1="249" y1="352" x2="275" y2="352"/>
<line class="st1" x1="119" y1="638" x2="93" y2="638"/>
<line class="st1" x1="41" y1="534" x2="41" y2="508"/>
<line class="st1" x1="587" y1="196" x2="561" y2="196"/>
<line class="st1" x1="171" y1="482" x2="197" y2="482"/>
<line class="st1" x1="15" y1="14" x2="41" y2="14"/>
<line class="st1" x1="561" y1="144" x2="561" y2="118"/>
<line class="st1" x1="327" y1="690" x2="327" y2="664"/>
<line class="st1" x1="769" y1="40" x2="769" y2="14"/>
<line class="st1" x1="249" y1="742" x2="249" y2="716"/>
<line class="st1" x1="379" y1="664" x2="379" y2="638"/>
<line class="st1" x1="587" y1="222" x2="613" y2="222"/>
<line class="st1" x1="249" y1="612" x2="249" y2="586"/>
<line class="st1" x1="327" y1="14" x2="353" y2="14"/>
<line class="st1" x1="405" y1="144" x2="405" y2="170"/>
<line class="st1" x1="535" y1="768" x2="535" y2="742"/>
<line class="st1" x1="301" y1="196" x2="301" y2="170"/>
<line class="st1" x1="743" y1="404" x2="743" y2="378"/>
<line class="st1" x1="171" y1="326" x2="171" y2="300"/>
<line class="st1" x1="743" y1="690" x2="769" y2="690"/>
<line class="st1" x1="223" y1="742" x2="249" y2="742"/>
<line class="st1" x1="561" y1="300" x2="561" y2="274"/>
<line class="st1" x1="15" y1="560" x2="15" y2="534"/>
<line class="st1" x1="379" y1="716" x2="405" y2="716"/>
<line class="st1" x1="145" y1="144" x2="145" y2="118"/>
<line class="st1" x1="483" y1="274" x2="483" y2="248"/>
<line class="st1" x1="405" y1="222" x2="405" y2="196"/>
<line class="st1" x1="665" y1="768" x2="665" y2="742"/>
<line class="st1" x1="509" y1="66" x2="509" y2="40"/>
<line class="st1" x1="639" y1="508" x2="639" y2="482"/>
<line class="st1" x1="587" y1="196" x2="587" y2="170"/>
<line class="st1" x1="15" y1="560" x2="41" y2="560"/>
<line class="st1" x1="93" y1="352" x2="119" y2="352"/>
<line class="st1" x1="717" y1="352" x2="717" y2="326"/>
<line class="st1" x1="561" y1="118" x2="561" y2="92"/>
<line class="st1" x1="639" y1="716" x2="639" y2="742"/>
<line class="st1" x1="691" y1="248" x2="717" y2="248"/>
<line class="st1" x1="223" y1="66" x2="249" y2="66"/>
<line class="st1" x1="483" y1="326" x2="483" y2="300"/>
<line class="st1" x1="327" y1="300" x2="327" y2="274"/>
<line class="st1" x1="275" y1="170" x2="301" y2="170"/>
<line class="st1" x1="353" y1="196" x2="353" y2="170"/>
<line class="st1" x1="15" y1="170" x2="41" y2="170"/>
<line class="st1" x1="301" y1="508" x2="301" y2="482"/>
<line class="st1" x1="145" y1="352" x2="145" y2="326"/>
<line class="st1" x1="561" y1="300" x2="561" y2="326"/>
<line class="st1" x1="223" y1="66" x2="223" y2="92"/>
<line class="st1" x1="145" y1="92" x2="145" y2="66"/>
<line class="st1" x1="15" y1="534" x2="15" y2="508"/>
<line class="st1" x1="431" y1="92" x2="457" y2="92"/>
<line class="st1" x1="249" y1="664" x2="249" y2="638"/>
<line class="st1" x1="275" y1="560" x2="301" y2="560"/>
<line class="st1" x1="197" y1="326" x2="197" y2="352"/>
<line class="st1" x1="223" y1="742" x2="223" y2="716"/>
<line class="st1" x1="249" y1="326" x2="249" y2="300"/>
<line class="st1" x1="145" y1="170" x2="145" y2="144"/>
<line class="st1" x1="613" y1="222" x2="613" y2="196"/>
<line class="st1" x1="301" y1="690" x2="327" y2="690"/>
<line class="st1" x1="275" y1="352" x2="275" y2="326"/>
<line class="st1" x1="769" y1="664" x2="769" y2="638"/>
<line class="st1" x1="769" y1="300" x2="769" y2="274"/>
<line class="st1" x1="717" y1="378" x2="717" y2="404"/>
<line class="st1" x1="587" y1="378" x2="561" y2="378"/>
<line class="st1" x1="717" y1="378" x2="743" y2="378"/>
<line class="st1" x1="509" y1="456" x2="483" y2="456"/>
<line class="st1" x1="613" y1="482" x2="613" y2="456"/>
<line class="st1" x1="639" y1="430" x2="639" y2="404"/>
<line class="st1" x1="15" y1="92" x2="15" y2="66"/>
<line class="st1" x1="509" y1="300" x2="509" y2="326"/>
<line class="st1" x1="587" y1="196" x2="613" y2="196"/>
<line class="st1" x1="587" y1="378" x2="613" y2="378"/>
<line class="st1" x1="535" y1="248" x2="535" y2="222"/>
<line class="st1" x1="561" y1="716" x2="561" y2="690"/>
<line class="st1" x1="275" y1="144" x2="275" y2="118"/>
<line class="st1" x1="301" y1="66" x2="301" y2="40"/>
<line class="st1" x1="353" y1="482" x2="379" y2="482"/>
<line class="st1" x1="353" y1="742" x2="353" y2="716"/>
<line class="st1" x1="431" y1="300" x2="431" y2="274"/>
<line class="st1" x1="249" y1="326" x2="275" y2="326"/>
<line class="st1" x1="145" y1="716" x2="145" y2="690"/>
<line class="st1" x1="405" y1="586" x2="405" y2="560"/>
<line class="st1" x1="119" y1="612" x2="119" y2="586"/>
<line class="st1" x1="379" y1="716" x2="379" y2="690"/>
<line class="st1" x1="639" y1="300" x2="665" y2="300"/>
<line class="st1" x1="483" y1="144" x2="509" y2="144"/>
<line class="st1" x1="509" y1="664" x2="509" y2="638"/>
<line class="st1" x1="145" y1="664" x2="145" y2="638"/>
<line class="st1" x1="197" y1="326" x2="197" y2="300"/>
<line class="st1" x1="275" y1="456" x2="275" y2="430"/>
<line class="st1" x1="535" y1="716" x2="561" y2="716"/>
<line class="st1" x1="639" y1="716" x2="639" y2="690"/>
<line class="st1" x1="587" y1="508" x2="587" y2="482"/>
<line class="st1" x1="379" y1="508" x2="405" y2="508"/>
<line class="st1" x1="457" y1="248" x2="483" y2="248"/>
<line class="st1" x1="535" y1="378" x2="561" y2="378"/>
<line class="st1" x1="431" y1="300" x2="431" y2="326"/>
<line class="st1" x1="457" y1="300" x2="483" y2="300"/>
<line class="st1" x1="275" y1="326" x2="275" y2="300"/>
<line class="st1" x1="613" y1="300" x2="613" y2="326"/>
<line class="st1" x1="327" y1="274" x2="353" y2="274"/>
<line class="st1" x1="119" y1="248" x2="119" y2="222"/>
<line class="st1" x1="301" y1="456" x2="301" y2="430"/>
<line class="st1" x1="119" y1="612" x2="145" y2="612"/>
<line class="st1" x1="483" y1="768" x2="483" y2="716"/>
<line class="st1" x1="67" y1="664" x2="67" y2="612"/>
<line class="st1" x1="405" y1="768" x2="405" y2="716"/>
<line class="st1" x1="587" y1="92" x2="587" y2="40"/>
<line class="st1" x1="587" y1="378" x2="587" y2="326"/>
<line class="st1" x1="665" y1="300" x2="665" y2="248"/>
<line class="st1" x1="197" y1="638" x2="197" y2="586"/>
<line class="st1" x1="67" y1="586" x2="119" y2="586"/>
<line class="st1" x1="223" y1="66" x2="223" y2="14"/>
<line class="st1" x1="509" y1="456" x2="561" y2="456"/>
<line class="st1" x1="327" y1="378" x2="379" y2="378"/>
<line class="st1" x1="327" y1="248" x2="327" y2="196"/>
<line class="st1" x1="431" y1="274" x2="431" y2="222"/>
<line class="st1" x1="353" y1="274" x2="353" y2="222"/>
<line class="st1" x1="691" y1="586" x2="691" y2="534"/>
<line class="st1" x1="223" y1="716" x2="223" y2="664"/>
<line class="st1" x1="769" y1="742" x2="769" y2="690"/>
<line class="st1" x1="587" y1="430" x2="639" y2="430"/>
<line class="st1" x1="301" y1="66" x2="249" y2="66"/>
<line class="st1" x1="197" y1="170" x2="197" y2="222"/>
<line class="st1" x1="93" y1="170" x2="93" y2="222"/>
<line class="st1" x1="197" y1="560" x2="197" y2="508"/>
<line class="st1" x1="301" y1="690" x2="301" y2="638"/>
<line class="st1" x1="327" y1="378" x2="327" y2="326"/>
<line class="st1" x1="743" y1="768" x2="743" y2="716"/>
<line class="st1" x1="665" y1="664" x2="665" y2="612"/>
<line class="st1" x1="327" y1="768" x2="327" y2="716"/>
<line class="st1" x1="561" y1="430" x2="561" y2="378"/>
<line class="st1" x1="119" y1="66" x2="119" y2="14"/>
<line class="st1" x1="171" y1="742" x2="223" y2="742"/>
<line class="st1" x1="119" y1="612" x2="67" y2="612"/>
<line class="st1" x1="93" y1="690" x2="93" y2="638"/>
<line class="st1" x1="639" y1="300" x2="639" y2="352"/>
<line class="st1" x1="67" y1="768" x2="67" y2="716"/>
<line class="st1" x1="561" y1="430" x2="509" y2="430"/>
<line class="st1" x1="405" y1="66" x2="405" y2="14"/>
<line class="st1" x1="67" y1="586" x2="67" y2="534"/>
<line class="st1" x1="431" y1="456" x2="431" y2="404"/>
<line class="st1" x1="665" y1="118" x2="717" y2="118"/>
<line class="st1" x1="431" y1="456" x2="483" y2="456"/>
<line class="st1" x1="717" y1="378" x2="665" y2="378"/>
<line class="st1" x1="275" y1="768" x2="275" y2="716"/>
<line class="st1" x1="301" y1="690" x2="301" y2="742"/>
<line class="st1" x1="535" y1="170" x2="535" y2="118"/>
<line class="st1" x1="509" y1="222" x2="509" y2="170"/>
<line class="st1" x1="613" y1="560" x2="613" y2="508"/>
<line class="st1" x1="223" y1="560" x2="223" y2="508"/>
<line class="st1" x1="691" y1="534" x2="743" y2="534"/>
<line class="st1" x1="379" y1="326" x2="327" y2="326"/>
<line class="st1" x1="431" y1="14" x2="483" y2="14"/>
<line class="st1" x1="561" y1="196" x2="561" y2="144"/>
<line class="st1" x1="509" y1="404" x2="509" y2="352"/>
<line class="st1" x1="171" y1="716" x2="223" y2="716"/>
<line class="st1" x1="301" y1="66" x2="301" y2="118"/>
<line class="st1" x1="145" y1="612" x2="145" y2="560"/>
<line class="st1" x1="665" y1="300" x2="717" y2="300"/>
<line class="st1" x1="119" y1="482" x2="119" y2="430"/>
<line class="st1" x1="327" y1="560" x2="327" y2="508"/>
<line class="st1" x1="379" y1="326" x2="379" y2="378"/>
<line class="st1" x1="353" y1="560" x2="405" y2="560"/>
<line class="st1" x1="535" y1="300" x2="535" y2="248"/>
<line class="st1" x1="743" y1="690" x2="743" y2="638"/>
<line class="st1" x1="145" y1="118" x2="197" y2="118"/>
<line class="st1" x1="483" y1="144" x2="483" y2="92"/>
<line class="st1" x1="535" y1="612" x2="535" y2="560"/>
<line class="st1" x1="457" y1="560" x2="457" y2="508"/>
<line class="st1" x1="431" y1="638" x2="431" y2="586"/>
<line class="st1" x1="691" y1="664" x2="691" y2="612"/>
<line class="st1" x1="67" y1="508" x2="67" y2="456"/>
<line class="st1" x1="431" y1="92" x2="431" y2="40"/>
<line class="st1" x1="613" y1="300" x2="613" y2="248"/>
<line class="st1" x1="93" y1="170" x2="93" y2="118"/>
<line class="st1" x1="41" y1="690" x2="93" y2="690"/>
<line class="st1" x1="665" y1="430" x2="665" y2="378"/>
<line class="st1" x1="15" y1="300" x2="15" y2="248"/>
<line class="st1" x1="249" y1="482" x2="249" y2="430"/>
<line class="st1" x1="379" y1="274" x2="379" y2="222"/>
<line class="st1" x1="587" y1="430" x2="587" y2="482"/>
<line class="st1" x1="93" y1="170" x2="41" y2="170"/>
<line class="st1" x1="509" y1="456" x2="509" y2="508"/>
<line class="st1" x1="301" y1="612" x2="301" y2="560"/>
<line class="st1" x1="405" y1="222" x2="405" y2="274"/>
<line class="st1" x1="249" y1="430" x2="249" y2="378"/>
<line class="st1" x1="535" y1="300" x2="535" y2="378"/>
<line class="st1" x1="171" y1="326" x2="171" y2="404"/>
<line class="st1" x1="457" y1="690" x2="457" y2="612"/>
<line class="st1" x1="145" y1="456" x2="145" y2="378"/>
<line class="st1" x1="639" y1="482" x2="717" y2="482"/>
<line class="st1" x1="639" y1="638" x2="639" y2="560"/>
<line class="st1" x1="353" y1="144" x2="275" y2="144"/>
<line class="st1" x1="119" y1="170" x2="119" y2="92"/>
<line class="st1" x1="15" y1="742" x2="15" y2="664"/>
<line class="st1" x1="353" y1="560" x2="353" y2="638"/>
<line class="st1" x1="457" y1="300" x2="457" y2="378"/>
<line class="st1" x1="275" y1="560" x2="275" y2="638"/>
<line class="st1" x1="171" y1="482" x2="171" y2="404"/>
<line class="st1" x1="41" y1="690" x2="41" y2="612"/>
<line class="st1" x1="509" y1="144" x2="509" y2="66"/>
<line class="st1" x1="327" y1="378" x2="249" y2="378"/>
<line class="st1" x1="93" y1="430" x2="93" y2="352"/>
<line class="st1" x1="639" y1="92" x2="639" y2="14"/>
<line class="st1" x1="327" y1="378" x2="327" y2="456"/>
<line class="st1" x1="275" y1="170" x2="275" y2="248"/>
<line class="st1" x1="67" y1="92" x2="67" y2="14"/>
<line class="st1" x1="483" y1="690" x2="483" y2="612"/>
<line class="st1" x1="665" y1="768" x2="743" y2="768"/>
<line class="st1" x1="613" y1="144" x2="613" y2="66"/>
<line class="st1" x1="145" y1="170" x2="145" y2="248"/>
<line class="st1" x1="457" y1="248" x2="457" y2="170"/>
<line class="st1" x1="249" y1="144" x2="249" y2="66"/>
<line class="st1" x1="535" y1="248" x2="613" y2="248"/>
<line class="st1" x1="483" y1="144" x2="483" y2="222"/>
<line class="st1" x1="197" y1="482" x2="197" y2="404"/>
<line class="st1" x1="535" y1="716" x2="535" y2="638"/>
<line class="st1" x1="119" y1="352" x2="119" y2="274"/>
<line class="st1" x1="15" y1="118" x2="93" y2="118"/>
<line class="st1" x1="275" y1="560" x2="275" y2="482"/>
<line class="st1" x1="717" y1="664" x2="717" y2="560"/>
<line class="st1" x1="483" y1="586" x2="483" y2="482"/>
<line class="st1" x1="119" y1="638" x2="119" y2="742"/>
<line class="st1" x1="561" y1="612" x2="561" y2="508"/>
<line class="st1" x1="665" y1="118" x2="665" y2="14"/>
<line class="st1" x1="717" y1="222" x2="717" y2="118"/>
<line class="st1" x1="301" y1="66" x2="405" y2="66"/>
<line class="st1" x1="327" y1="456" x2="431" y2="456"/>
<line class="st1" x1="41" y1="352" x2="41" y2="248"/>
<line class="st1" x1="41" y1="456" x2="41" y2="352"/>
<line class="st1" x1="639" y1="300" x2="639" y2="196"/>
<line class="st1" x1="93" y1="326" x2="93" y2="222"/>
<line class="st1" x1="405" y1="716" x2="405" y2="586"/>
<line class="st1" x1="743" y1="196" x2="743" y2="66"/>
<line class="st1" x1="743" y1="378" x2="743" y2="248"/>
<line class="st1" x1="769" y1="248" x2="769" y2="118"/>
<line class="st1" x1="67" y1="430" x2="67" y2="300"/>
<line class="st1" x1="509" y1="14" x2="639" y2="14"/>
<line class="st1" x1="171" y1="170" x2="171" y2="300"/>
<line class="st1" x1="769" y1="560" x2="769" y2="404"/>
<line class="st1" x1="301" y1="352" x2="301" y2="196"/>
<line class="st1" x1="15" y1="456" x2="15" y2="300"/>
<line class="st1" x1="587" y1="690" x2="587" y2="508"/>
<line class="st1" x1="145" y1="352" x2="145" y2="378"/>
<line class="st1" x1="665" y1="14" x2="639" y2="14"/>
<line class="st1" x1="613" y1="40" x2="613" y2="66"/>
<line class="st1" x1="561" y1="378" x2="561" y2="326"/>
<line class="st1" x1="561" y1="118" x2="535" y2="118"/>
<line class="st1" x1="613" y1="326" x2="587" y2="326"/>
<line class="st1" x1="249" y1="430" x2="275" y2="430"/>
<line class="st1" x1="301" y1="742" x2="249" y2="742"/>
<line class="st1" x1="197" y1="352" x2="249" y2="352"/>
<line class="st1" x1="561" y1="326" x2="587" y2="326"/>
<line class="st1" x1="613" y1="456" x2="639" y2="456"/>
<line class="st1" x1="145" y1="742" x2="119" y2="742"/>
<line class="st1" x1="587" y1="768" x2="535" y2="768"/>
<line class="st1" x1="587" y1="326" x2="587" y2="222"/>
<line class="st1" x1="41" y1="508" x2="67" y2="508"/>
<line class="st1" x1="145" y1="92" x2="171" y2="92"/>
<line class="st1" x1="93" y1="638" x2="93" y2="430"/>
<line class="st1" x1="717" y1="690" x2="691" y2="690"/>
<line class="st1" x1="769" y1="742" x2="717" y2="742"/>
<line class="st1" x1="67" y1="456" x2="41" y2="456"/>
<line class="st1" x1="197" y1="586" x2="197" y2="560"/>
<line class="st1" x1="145" y1="768" x2="67" y2="768"/>
<line class="st1" x1="15" y1="196" x2="41" y2="196"/>
<line class="st1" x1="197" y1="508" x2="197" y2="482"/>
<line class="st1" x1="743" y1="508" x2="743" y2="456"/>
<line class="st1" x1="379" y1="92" x2="327" y2="92"/>
<line class="st1" x1="15" y1="170" x2="15" y2="144"/>
<line class="st1" x1="15" y1="300" x2="67" y2="300"/>
<line class="st1" x1="67" y1="430" x2="67" y2="456"/>
<line class="st1" x1="327" y1="274" x2="327" y2="248"/>
<line class="st1" x1="509" y1="690" x2="483" y2="690"/>
<line class="st1" x1="119" y1="482" x2="145" y2="482"/>
<line class="st1" x1="379" y1="534" x2="405" y2="534"/>
<line class="st1" x1="769" y1="14" x2="743" y2="14"/>
<line class="st1" x1="41" y1="170" x2="41" y2="196"/>
<line class="st1" x1="197" y1="222" x2="119" y2="222"/>
<line class="st1" x1="119" y1="66" x2="119" y2="92"/>
<line class="st1" x1="249" y1="638" x2="275" y2="638"/>
<line class="st1" x1="275" y1="326" x2="327" y2="326"/>
<line class="st1" x1="483" y1="456" x2="483" y2="482"/>
<line class="st1" x1="15" y1="66" x2="41" y2="66"/>
<line class="st1" x1="15" y1="534" x2="41" y2="534"/>
<line class="st1" x1="353" y1="742" x2="379" y2="742"/>
<line class="st1" x1="743" y1="248" x2="743" y2="196"/>
<line class="st1" x1="639" y1="638" x2="639" y2="690"/>
<line class="st1" x1="145" y1="716" x2="145" y2="742"/>
<line class="st1" x1="171" y1="742" x2="145" y2="742"/>
<line class="st1" x1="483" y1="14" x2="509" y2="14"/>
<line class="st1" x1="665" y1="768" x2="587" y2="768"/>
<line class="st1" x1="535" y1="612" x2="535" y2="638"/>
<line class="st1" x1="613" y1="560" x2="639" y2="560"/>
<line class="st1" x1="327" y1="560" x2="327" y2="664"/>
<line class="st1" x1="561" y1="40" x2="587" y2="40"/>
<line class="st1" x1="93" y1="430" x2="119" y2="430"/>
<line class="st1" x1="535" y1="560" x2="457" y2="560"/>
<line class="st1" x1="613" y1="66" x2="535" y2="66"/>
<line class="st1" x1="509" y1="222" x2="535" y2="222"/>
<line class="st1" x1="15" y1="560" x2="15" y2="664"/>
<line class="st1" x1="431" y1="404" x2="405" y2="404"/>
<line class="st1" x1="743" y1="456" x2="717" y2="456"/>
<line class="st1" x1="119" y1="404" x2="119" y2="430"/>
<line class="st1" x1="15" y1="14" x2="15" y2="66"/>
<line class="st1" x1="67" y1="612" x2="67" y2="586"/>
<line class="st1" x1="691" y1="352" x2="717" y2="352"/>
<line class="st1" x1="769" y1="40" x2="769" y2="118"/>
<line class="st1" x1="41" y1="456" x2="15" y2="456"/>
<line class="st1" x1="483" y1="716" x2="535" y2="716"/>
<line class="st1" x1="769" y1="248" x2="769" y2="274"/>
<line class="st1" x1="691" y1="690" x2="691" y2="664"/>
<line class="st1" x1="769" y1="300" x2="717" y2="300"/>
<line class="st1" x1="41" y1="560" x2="41" y2="612"/>
<line class="st1" x1="665" y1="586" x2="691" y2="586"/>
<line class="st1" x1="431" y1="638" x2="379" y2="638"/>
<line class="st1" x1="691" y1="742" x2="665" y2="742"/>
<line class="st1" x1="769" y1="118" x2="717" y2="118"/>
<line class="st1" x1="171" y1="404" x2="197" y2="404"/>
<line class="st1" x1="41" y1="40" x2="41" y2="14"/>
<line class="st1" x1="665" y1="742" x2="639" y2="742"/>
<line class="st1" x1="249" y1="612" x2="223" y2="612"/>
<line class="st1" x1="613" y1="508" x2="587" y2="508"/>
<line class="st1" x1="535" y1="716" x2="535" y2="742"/>
<line class="st1" x1="15" y1="92" x2="15" y2="118"/>
<line class="st1" x1="431" y1="352" x2="431" y2="326"/>
<line class="st1" x1="119" y1="248" x2="145" y2="248"/>
<line class="st1" x1="717" y1="300" x2="717" y2="274"/>
<line class="st1" x1="535" y1="66" x2="509" y2="66"/>
<line class="st1" x1="353" y1="430" x2="301" y2="430"/>
<line class="st1" x1="171" y1="482" x2="145" y2="482"/>
<line class="st1" x1="665" y1="664" x2="691" y2="664"/>
<line class="st1" x1="145" y1="560" x2="145" y2="508"/>
<line class="st1" x1="691" y1="326" x2="717" y2="326"/>
<line class="st1" x1="431" y1="118" x2="379" y2="118"/>
<line class="st1" x1="639" y1="196" x2="613" y2="196"/>
<line class="st1" x1="561" y1="508" x2="587" y2="508"/>
<line class="st1" x1="327" y1="14" x2="301" y2="14"/>
<line class="st1" x1="743" y1="560" x2="769" y2="560"/>
<line class="st1" x1="301" y1="508" x2="327" y2="508"/>
<line class="st1" x1="249" y1="586" x2="223" y2="586"/>
<line class="st1" x1="353" y1="690" x2="353" y2="716"/>
<line class="st1" x1="223" y1="482" x2="197" y2="482"/>
<line class="st1" x1="327" y1="768" x2="275" y2="768"/>
<line class="st1" x1="171" y1="14" x2="171" y2="66"/>
<line class="st1" x1="769" y1="404" x2="743" y2="404"/>
<line class="st1" x1="67" y1="14" x2="41" y2="14"/>
<line class="st1" x1="405" y1="170" x2="405" y2="196"/>
<line class="st1" x1="509" y1="352" x2="509" y2="326"/>
<line class="st1" x1="769" y1="638" x2="743" y2="638"/>
<circle class="st2" cx="15" cy="248" r="4"/>
<circle class="st3" cx="15" cy="300" r="4"/>
<line class="st4" x1="15" y1="300" x2="15" y2="248"/>
<circle class="st3" cx="15" cy="456" r="4"/>
<line class="st4" x1="15" y1="456" x2="15" y2="300"/>
<circle class="st3" cx="41" cy="456" r="4"/>
<line class="st4" x1="41" y1="456" x2="15" y2="456"/>
<circle class="st3" cx="67" cy="456" r="4"/>
<line class="st4" x1="67" y1="456" x2="41" y2="456"/>
<circle class="st3" cx="67" cy="508" r="4"/>
<line class="st4" x1="67" y1="508" x2="67" y2="456"/>
<circle class="st3" cx="41" cy="508" r="4"/>
<line class="st4" x1="41" y1="508" x2="67" y2="508"/>
<circle class="st3" cx="41" cy="534" r="4"/>
<line class="st4" x1="41" y1="534" x2="41" y2="508"/>
<circle class="st3" cx="41" cy="560" r="4"/>
<line class="st4" x1="41" y1="560" x2="41" y2="534"/>
<circle class="st3" cx="41" cy="612" r="4"/>
<line class="st4" x1="41" y1="612" x2="41" y2="560"/>
<circle class="st3" cx="41" cy="690" r="4"/>
<line class="st4" x1="41" y1="690" x2="41" y2="612"/>
<circle class="st3" cx="93" cy="690" r="4"/>
<line class="st4" x1="93" y1="690" x2="41" y2="690"/>
<circle class="st3" cx="93" cy="638" r="4"/>
<line class="st4" x1="93" y1="638" x2="93" y2="690"/>
<circle class="st3" cx="119" cy="638" r="4"/>
<line class="st4" x1="119" y1="638" x2="93" y2="638"/>
<circle class="st3" cx="119" cy="742" r="4"/>
<line class="st4" x1="119" y1="742" x2="119" y2="638"/>
<circle class="st3" cx="145" cy="742" r="4"/>
<line class="st4" x1="145" y1="742" x2="119" y2="742"/>
<circle class="st3" cx="171" cy="742" r="4"/>
<line class="st4" x1="171" y1="742" x2="145" y2="742"/>
<circle class="st3" cx="223" cy="742" r="4"/>
<line class="st4" x1="223" y1="742" x2="171" y2="742"/>
<circle class="st3" cx="249" cy="742" r="4"/>
<line class="st4" x1="249" y1="742" x2="223" y2="742"/>
<circle class="st3" cx="301" cy="742" r="4"/>
<circle class="st0" cx="274" cy="742" r="3"/>
<circle class="st3" cx="275" cy="742" r="4"/>
<line class="st4" x1="301" y1="742" x2="249" y2="742"/>
<circle class="st3" cx="301" cy="690" r="4"/>
<line class="st4" x1="301" y1="690" x2="301" y2="742"/>
<circle class="st3" cx="301" cy="638" r="4"/>
<line class="st4" x1="301" y1="638" x2="301" y2="690"/>
<circle class="st3" cx="275" cy="638" r="4"/>
<line class="st4" x1="275" y1="638" x2="301" y2="638"/>
<circle class="st3" cx="275" cy="560" r="4"/>
<line class="st4" x1="275" y1="560" x2="275" y2="638"/>
<circle class="st3" cx="275" cy="482" r="4"/>
<line class="st4" x1="275" y1="482" x2="275" y2="560"/>
<circle class="st3" cx="249" cy="482" r="4"/>
<line class="st4" x1="249" y1="482" x2="275" y2="482"/>
<circle class="st3" cx="249" cy="430" r="4"/>
<line class="st4" x1="249" y1="430" x2="249" y2="482"/>
<circle class="st3" cx="249" cy="378" r="4"/>
<line class="st4" x1="249" y1="378" x2="249" y2="430"/>
<circle class="st3" cx="327" cy="378" r="4"/>
<line class="st4" x1="327" y1="378" x2="249" y2="378"/>
<circle class="st3" cx="327" cy="326" r="4"/>
<line class="st4" x1="327" y1="326" x2="327" y2="378"/>
<circle class="st3" cx="301" cy="326" r="4"/>
<line class="st4" x1="301" y1="326" x2="327" y2="326"/>
<circle class="st3" cx="301" cy="196" r="4"/>
<line class="st4" x1="301" y1="196" x2="301" y2="326"/>
<circle class="st3" cx="301" cy="170" r="4"/>
<line class="st4" x1="301" y1="170" x2="301" y2="196"/>
<circle class="st3" cx="275" cy="170" r="4"/>
<line class="st4" x1="275" y1="170" x2="301" y2="170"/>
<circle class="st3" cx="275" cy="144" r="4"/>
<line class="st4" x1="275" y1="144" x2="275" y2="170"/>
<circle class="st3" cx="275" cy="118" r="4"/>
<line class="st4" x1="275" y1="118" x2="275" y2="144"/>
<circle class="st3" cx="301" cy="118" r="4"/>
<line class="st4" x1="301" y1="118" x2="275" y2="118"/>
<circle class="st3" cx="301" cy="66" r="4"/>
<line class="st4" x1="301" y1="66" x2="301" y2="118"/>
<circle class="st3" cx="249" cy="66" r="4"/>
<line class="st4" x1="249" y1="66" x2="301" y2="66"/>
<circle class="st3" cx="223" cy="66" r="4"/>
<line class="st4" x1="223" y1="66" x2="249" y2="66"/>
<circle class="st3" cx="223" cy="92" r="4"/>
<line class="st4" x1="223" y1="92" x2="223" y2="66"/>
<circle class="st3" cx="197" cy="92" r="4"/>
<line class="st4" x1="197" y1="92" x2="223" y2="92"/>
<circle class="st3" cx="197" cy="118" r="4"/>
<line class="st4" x1="197" y1="118" x2="197" y2="92"/>
<circle class="st3" cx="145" cy="118" r="4"/>
<line class="st4" x1="145" y1="118" x2="197" y2="118"/>
<circle class="st3" cx="145" cy="144" r="4"/>
<line class="st4" x1="145" y1="144" x2="145" y2="118"/>
<circle class="st3" cx="145" cy="170" r="4"/>
<line class="st4" x1="145" y1="170" x2="145" y2="144"/>
<circle class="st3" cx="119" cy="170" r="4"/>
<line class="st4" x1="119" y1="170" x2="145" y2="170"/>
<circle class="st3" cx="93" cy="170" r="4"/>
<line class="st4" x1="93" y1="170" x2="119" y2="170"/>
<circle class="st3" cx="41" cy="170" r="4"/>
<line class="st4" x1="41" y1="170" x2="93" y2="170"/>
<circle class="st3" cx="15" cy="170" r="4"/>
<line class="st4" x1="15" y1="170" x2="41" y2="170"/>
<circle class="st3" cx="15" cy="196" r="4"/>
<line class="st4" x1="15" y1="196" x2="15" y2="170"/>
<circle class="st3" cx="15" cy="222" r="4"/>
<line class="st4" x1="15" y1="222" x2="15" y2="196"/>
<circle class="st5" cx="15" cy="222" r="4"/>
<circle class="st0" cx="41" cy="300" r="3"/>
<circle class="st0" cx="93" cy="587" r="3"/>
<circle class="st0" cx="93" cy="612" r="3"/>
</svg>
