<?xml version="1.0" encoding="utf-8"?>
<!-- Generator: Adobe Illustrator 21.1.0, SVG Export Plug-In . SVG Version: 6.00 Build 0)  -->
<svg version="1.1" id="Layer_1" xmlns="http://www.w3.org/2000/svg" xmlns:xlink="http://www.w3.org/1999/xlink" x="0px" y="0px"
	 viewBox="0 0 782 782" style="enable-background:new 0 0 782 782;" xml:space="preserve">
<style type="text/css">
	.st0{stroke:#000000;}
	.st1{fill:none;stroke:#000000;}
	.st2{fill:#FF0000;}
	.st3{fill:#00FF00;}
</style>
<circle class="st0" cx="404" cy="378" r="3"/>
<circle class="st0" cx="664" cy="14" r="3"/>
<circle class="st0" cx="612" cy="40" r="3"/>
<circle class="st0" cx="560" cy="378" r="3"/>
<circle class="st0" cx="560" cy="118" r="3"/>
<circle class="st0" cx="612" cy="326" r="3"/>
<circle class="st0" cx="248" cy="430" r="3"/>
<circle class="st0" cx="300" cy="742" r="3"/>
<circle class="st0" cx="196" cy="352" r="3"/>
<circle class="st0" cx="560" cy="326" r="3"/>
<circle class="st0" cx="612" cy="456" r="3"/>
<circle class="st0" cx="144" cy="742" r="3"/>
<circle class="st0" cx="586" cy="768" r="3"/>
<circle class="st0" cx="586" cy="326" r="3"/>
<circle class="st0" cx="40" cy="508" r="3"/>
<circle class="st0" cx="144" cy="92" r="3"/>
<circle class="st0" cx="92" cy="638" r="3"/>
<circle class="st0" cx="716" cy="690" r="3"/>
<circle class="st0" cx="768" cy="742" r="3"/>
<circle class="st0" cx="66" cy="456" r="3"/>
<circle class="st0" cx="300" cy="352" r="3"/>
<circle class="st0" cx="144" cy="768" r="3"/>
<circle class="st0" cx="14" cy="196" r="3"/>
<circle class="st0" cx="378" cy="92" r="3"/>
<circle class="st0" cx="14" cy="170" r="3"/>
<circle class="st0" cx="14" cy="300" r="3"/>
<circle class="st0" cx="326" cy="274" r="3"/>
<circle class="st0" cx="508" cy="690" r="3"/>
<circle class="st0" cx="118" cy="482" r="3"/>
<circle class="st0" cx="378" cy="534" r="3"/>
<circle class="st0" cx="768" cy="14" r="3"/>
<circle class="st0" cx="40" cy="170" r="3"/>
<circle class="st0" cx="196" cy="222" r="3"/>
<circle class="st0" cx="118" cy="66" r="3"/>
<circle class="st0" cx="248" cy="638" r="3"/>
<circle class="st0" cx="274" cy="326" r="3"/>
<circle class="st0" cx="482" cy="456" r="3"/>
<circle class="st0" cx="14" cy="66" r="3"/>
<circle class="st0" cx="14" cy="534" r="3"/>
<circle class="st0" cx="352" cy="742" r="3"/>
<circle class="st0" cx="742" cy="248" r="3"/>
<circle class="st0" cx="170" cy="742" r="3"/>
<circle class="st0" cx="742" cy="768" r="3"/>
<circle class="st0" cx="612" cy="560" r="3"/>
<circle class="st0" cx="326" cy="560" r="3"/>
<circle class="st0" cx="560" cy="40" r="3"/>
<circle class="st0" cx="92" cy="430" r="3"/>
<circle class="st0" cx="534" cy="560" r="3"/>
<circle class="st0" cx="612" cy="66" r="3"/>
<circle class="st0" cx="508" cy="222" r="3"/>
<circle class="st0" cx="14" cy="560" r="3"/>
<circle class="st0" cx="430" cy="404" r="3"/>
<circle class="st0" cx="560" cy="92" r="3"/>
<circle class="st0" cx="300" cy="430" r="3"/>
<circle class="st0" cx="430" cy="274" r="3"/>
<circle class="st0" cx="274" cy="482" r="3"/>
<circle class="st0" cx="742" cy="456" r="3"/>
<circle class="st0" cx="300" cy="612" r="3"/>
<circle class="st0" cx="14" cy="14" r="3"/>
<circle class="st0" cx="66" cy="612" r="3"/>
<circle class="st0" cx="690" cy="352" r="3"/>
<circle class="st0" cx="326" cy="196" r="3"/>
<circle class="st0" cx="352" cy="482" r="3"/>
<circle class="st0" cx="40" cy="456" r="3"/>
<circle class="st0" cx="274" cy="638" r="3"/>
<circle class="st0" cx="482" cy="716" r="3"/>
<circle class="st0" cx="378" cy="690" r="3"/>
<circle class="st0" cx="430" cy="456" r="3"/>
<circle class="st0" cx="768" cy="248" r="3"/>
<circle class="st0" cx="690" cy="690" r="3"/>
<circle class="st0" cx="326" cy="92" r="3"/>
<circle class="st0" cx="768" cy="300" r="3"/>
<circle class="st0" cx="508" cy="144" r="3"/>
<circle class="st0" cx="40" cy="560" r="3"/>
<circle class="st0" cx="196" cy="118" r="3"/>
<circle class="st0" cx="664" cy="586" r="3"/>
<circle class="st0" cx="118" cy="742" r="3"/>
<circle class="st0" cx="430" cy="638" r="3"/>
<circle class="st0" cx="690" cy="742" r="3"/>
<circle class="st0" cx="404" cy="534" r="3"/>
<circle class="st0" cx="144" cy="482" r="3"/>
<circle class="st0" cx="768" cy="118" r="3"/>
<circle class="st0" cx="170" cy="404" r="3"/>
<circle class="st0" cx="664" cy="742" r="3"/>
<circle class="st0" cx="638" cy="508" r="3"/>
<circle class="st0" cx="352" cy="196" r="3"/>
<circle class="st0" cx="404" cy="300" r="3"/>
<circle class="st0" cx="248" cy="612" r="3"/>
<circle class="st0" cx="612" cy="508" r="3"/>
<circle class="st0" cx="534" cy="716" r="3"/>
<circle class="st0" cx="40" cy="66" r="3"/>
<circle class="st0" cx="326" cy="456" r="3"/>
<circle class="st0" cx="196" cy="300" r="3"/>
<circle class="st0" cx="378" cy="664" r="3"/>
<circle class="st0" cx="300" cy="638" r="3"/>
<circle class="st0" cx="118" cy="248" r="3"/>
<circle class="st0" cx="716" cy="300" r="3"/>
<circle class="st0" cx="508" cy="768" r="3"/>
<circle class="st0" cx="638" cy="456" r="3"/>
<circle class="st0" cx="534" cy="768" r="3"/>
<circle class="st0" cx="40" cy="690" r="3"/>
<circle class="st0" cx="118" cy="222" r="3"/>
<circle class="st0" cx="352" cy="430" r="3"/>
<circle class="st0" cx="248" cy="742" r="3"/>
<circle class="st0" cx="170" cy="482" r="3"/>
<circle class="st0" cx="586" cy="690" r="3"/>
<circle class="st0" cx="404" cy="66" r="3"/>
<circle class="st0" cx="378" cy="742" r="3"/>
<circle class="st0" cx="638" cy="560" r="3"/>
<circle class="st0" cx="274" cy="456" r="3"/>
<circle class="st0" cx="300" cy="456" r="3"/>
<circle class="st0" cx="716" cy="456" r="3"/>
<circle class="st0" cx="742" cy="638" r="3"/>
<circle class="st0" cx="560" cy="274" r="3"/>
<circle class="st0" cx="352" cy="716" r="3"/>
<circle class="st0" cx="118" cy="14" r="3"/>
<circle class="st0" cx="664" cy="664" r="3"/>
<circle class="st0" cx="14" cy="456" r="3"/>
<circle class="st0" cx="92" cy="92" r="3"/>
<circle class="st0" cx="144" cy="456" r="3"/>
<circle class="st0" cx="40" cy="14" r="3"/>
<circle class="st0" cx="690" cy="326" r="3"/>
<circle class="st0" cx="430" cy="118" r="3"/>
<circle class="st0" cx="404" cy="274" r="3"/>
<circle class="st0" cx="638" cy="196" r="3"/>
<circle class="st0" cx="482" cy="326" r="3"/>
<circle class="st0" cx="482" cy="690" r="3"/>
<circle class="st0" cx="274" cy="118" r="3"/>
<circle class="st0" cx="222" cy="664" r="3"/>
<circle class="st0" cx="66" cy="768" r="3"/>
<circle class="st0" cx="274" cy="248" r="3"/>
<circle class="st0" cx="742" cy="612" r="3"/>
<circle class="st0" cx="248" cy="716" r="3"/>
<circle class="st0" cx="352" cy="118" r="3"/>
<circle class="st0" cx="560" cy="508" r="3"/>
<circle class="st0" cx="66" cy="664" r="3"/>
<circle class="st0" cx="664" cy="300" r="3"/>
<circle class="st0" cx="92" cy="118" r="3"/>
<circle class="st0" cx="690" cy="274" r="3"/>
<circle class="st0" cx="612" cy="482" r="3"/>
<circle class="st0" cx="534" cy="248" r="3"/>
<circle class="st0" cx="508" cy="508" r="3"/>
<circle class="st0" cx="118" cy="586" r="3"/>
<circle class="st0" cx="144" cy="638" r="3"/>
<circle class="st0" cx="482" cy="222" r="3"/>
<circle class="st0" cx="196" cy="404" r="3"/>
<circle class="st0" cx="690" cy="664" r="3"/>
<circle class="st0" cx="482" cy="92" r="3"/>
<circle class="st0" cx="118" cy="378" r="3"/>
<circle class="st0" cx="170" cy="144" r="3"/>
<circle class="st0" cx="118" cy="170" r="3"/>
<circle class="st0" cx="456" cy="612" r="3"/>
<circle class="st0" cx="716" cy="482" r="3"/>
<circle class="st0" cx="248" cy="300" r="3"/>
<circle class="st0" cx="742" cy="560" r="3"/>
<circle class="st0" cx="300" cy="508" r="3"/>
<circle class="st0" cx="404" cy="560" r="3"/>
<circle class="st0" cx="586" cy="92" r="3"/>
<circle class="st0" cx="638" cy="742" r="3"/>
<circle class="st0" cx="300" cy="170" r="3"/>
<circle class="st0" cx="508" cy="742" r="3"/>
<circle class="st0" cx="716" cy="352" r="3"/>
<circle class="st0" cx="248" cy="586" r="3"/>
<circle class="st0" cx="534" cy="118" r="3"/>
<circle class="st0" cx="66" cy="586" r="3"/>
<circle class="st0" cx="690" cy="222" r="3"/>
<circle class="st0" cx="274" cy="352" r="3"/>
<circle class="st0" cx="66" cy="300" r="3"/>
<circle class="st0" cx="638" cy="92" r="3"/>
<circle class="st0" cx="404" cy="716" r="3"/>
<circle class="st0" cx="222" cy="508" r="3"/>
<circle class="st0" cx="118" cy="92" r="3"/>
<circle class="st0" cx="144" cy="664" r="3"/>
<circle class="st0" cx="664" cy="378" r="3"/>
<circle class="st0" cx="66" cy="716" r="3"/>
<circle class="st0" cx="560" cy="716" r="3"/>
<circle class="st0" cx="404" cy="508" r="3"/>
<circle class="st0" cx="352" cy="638" r="3"/>
<circle class="st0" cx="430" cy="560" r="3"/>
<circle class="st0" cx="586" cy="170" r="3"/>
<circle class="st0" cx="456" cy="92" r="3"/>
<circle class="st0" cx="612" cy="378" r="3"/>
<circle class="st0" cx="248" cy="66" r="3"/>
<circle class="st0" cx="248" cy="378" r="3"/>
<circle class="st0" cx="222" cy="482" r="3"/>
<circle class="st0" cx="716" cy="404" r="3"/>
<circle class="st0" cx="664" cy="170" r="3"/>
<circle class="st0" cx="144" cy="326" r="3"/>
<circle class="st0" cx="222" cy="716" r="3"/>
<circle class="st0" cx="222" cy="638" r="3"/>
<circle class="st0" cx="430" cy="378" r="3"/>
<circle class="st0" cx="404" cy="768" r="3"/>
<circle class="st0" cx="456" cy="248" r="3"/>
<circle class="st0" cx="326" cy="690" r="3"/>
<circle class="st0" cx="508" cy="40" r="3"/>
<circle class="st0" cx="534" cy="378" r="3"/>
<circle class="st0" cx="144" cy="690" r="3"/>
<circle class="st0" cx="118" cy="274" r="3"/>
<circle class="st0" cx="248" cy="482" r="3"/>
<circle class="st0" cx="586" cy="40" r="3"/>
<circle class="st0" cx="404" cy="326" r="3"/>
<circle class="st0" cx="560" cy="456" r="3"/>
<circle class="st0" cx="118" cy="430" r="3"/>
<circle class="st0" cx="742" cy="716" r="3"/>
<circle class="st0" cx="222" cy="14" r="3"/>
<circle class="st0" cx="742" cy="690" r="3"/>
<circle class="st0" cx="482" cy="300" r="3"/>
<circle class="st0" cx="378" cy="196" r="3"/>
<circle class="st0" cx="742" cy="66" r="3"/>
<circle class="st0" cx="14" cy="118" r="3"/>
<circle class="st0" cx="274" cy="430" r="3"/>
<circle class="st0" cx="742" cy="404" r="3"/>
<circle class="st0" cx="326" cy="768" r="3"/>
<circle class="st0" cx="92" cy="352" r="3"/>
<circle class="st0" cx="508" cy="430" r="3"/>
<circle class="st0" cx="690" cy="612" r="3"/>
<circle class="st0" cx="664" cy="456" r="3"/>
<circle class="st0" cx="586" cy="222" r="3"/>
<circle class="st0" cx="170" cy="14" r="3"/>
<circle class="st0" cx="326" cy="300" r="3"/>
<circle class="st0" cx="638" cy="14" r="3"/>
<circle class="st0" cx="560" cy="690" r="3"/>
<circle class="st0" cx="612" cy="196" r="3"/>
<circle class="st0" cx="144" cy="248" r="3"/>
<circle class="st0" cx="352" cy="14" r="3"/>
<circle class="st0" cx="92" cy="326" r="3"/>
<circle class="st0" cx="638" cy="352" r="3"/>
<circle class="st0" cx="560" cy="196" r="3"/>
<circle class="st0" cx="326" cy="326" r="3"/>
<circle class="st0" cx="144" cy="66" r="3"/>
<circle class="st0" cx="378" cy="378" r="3"/>
<circle class="st0" cx="456" cy="508" r="3"/>
<circle class="st0" cx="664" cy="560" r="3"/>
<circle class="st0" cx="638" cy="482" r="3"/>
<circle class="st0" cx="274" cy="144" r="3"/>
<circle class="st0" cx="508" cy="66" r="3"/>
<circle class="st0" cx="586" cy="716" r="3"/>
<circle class="st0" cx="534" cy="222" r="3"/>
<circle class="st0" cx="274" cy="768" r="3"/>
<circle class="st0" cx="40" cy="144" r="3"/>
<circle class="st0" cx="248" cy="664" r="3"/>
<circle class="st0" cx="768" cy="404" r="3"/>
<circle class="st0" cx="378" cy="482" r="3"/>
<circle class="st0" cx="742" cy="586" r="3"/>
<circle class="st0" cx="456" cy="378" r="3"/>
<circle class="st0" cx="274" cy="14" r="3"/>
<circle class="st0" cx="430" cy="40" r="3"/>
<circle class="st0" cx="92" cy="690" r="3"/>
<circle class="st0" cx="66" cy="14" r="3"/>
<circle class="st0" cx="300" cy="560" r="3"/>
<circle class="st0" cx="196" cy="664" r="3"/>
<circle class="st0" cx="40" cy="222" r="3"/>
<circle class="st0" cx="40" cy="248" r="3"/>
<circle class="st0" cx="508" cy="638" r="3"/>
<circle class="st0" cx="716" cy="118" r="3"/>
<circle class="st0" cx="612" cy="222" r="3"/>
<circle class="st0" cx="66" cy="508" r="3"/>
<circle class="st0" cx="716" cy="742" r="3"/>
<circle class="st0" cx="612" cy="716" r="3"/>
<circle class="st0" cx="248" cy="144" r="3"/>
<circle class="st0" cx="742" cy="430" r="3"/>
<circle class="st0" cx="326" cy="508" r="3"/>
<circle class="st0" cx="664" cy="612" r="3"/>
<circle class="st0" cx="196" cy="144" r="3"/>
<circle class="st0" cx="586" cy="482" r="3"/>
<circle class="st0" cx="378" cy="638" r="3"/>
<circle class="st0" cx="222" cy="586" r="3"/>
<circle class="st0" cx="326" cy="716" r="3"/>
<circle class="st0" cx="612" cy="144" r="3"/>
<circle class="st0" cx="742" cy="534" r="3"/>
<circle class="st0" cx="482" cy="430" r="3"/>
<circle class="st0" cx="144" cy="612" r="3"/>
<circle class="st0" cx="716" cy="560" r="3"/>
<circle class="st0" cx="352" cy="222" r="3"/>
<circle class="st0" cx="40" cy="196" r="3"/>
<circle class="st0" cx="560" cy="612" r="3"/>
<circle class="st0" cx="118" cy="352" r="3"/>
<circle class="st0" cx="508" cy="274" r="3"/>
<circle class="st0" cx="404" cy="14" r="3"/>
<circle class="st0" cx="248" cy="352" r="3"/>
<circle class="st0" cx="66" cy="534" r="3"/>
<circle class="st0" cx="14" cy="482" r="3"/>
<circle class="st0" cx="326" cy="118" r="3"/>
<circle class="st0" cx="482" cy="586" r="3"/>
<circle class="st0" cx="404" cy="482" r="3"/>
<circle class="st0" cx="664" cy="118" r="3"/>
<circle class="st0" cx="482" cy="612" r="3"/>
<circle class="st0" cx="378" cy="118" r="3"/>
<circle class="st0" cx="638" cy="430" r="3"/>
<circle class="st0" cx="664" cy="768" r="3"/>
<circle class="st0" cx="456" cy="560" r="3"/>
<circle class="st0" cx="300" cy="482" r="3"/>
<circle class="st0" cx="742" cy="378" r="3"/>
<circle class="st0" cx="534" cy="170" r="3"/>
<circle class="st0" cx="196" cy="560" r="3"/>
<circle class="st0" cx="300" cy="118" r="3"/>
<circle class="st0" cx="482" cy="248" r="3"/>
<circle class="st0" cx="638" cy="404" r="3"/>
<circle class="st0" cx="196" cy="482" r="3"/>
<circle class="st0" cx="716" cy="222" r="3"/>
<circle class="st0" cx="716" cy="92" r="3"/>
<circle class="st0" cx="456" cy="690" r="3"/>
<circle class="st0" cx="690" cy="586" r="3"/>
<circle class="st0" cx="456" cy="170" r="3"/>
<circle class="st0" cx="274" cy="690" r="3"/>
<circle class="st0" cx="144" cy="118" r="3"/>
<circle class="st0" cx="768" cy="560" r="3"/>
<circle class="st0" cx="66" cy="92" r="3"/>
<circle class="st0" cx="404" cy="404" r="3"/>
<circle class="st0" cx="40" cy="534" r="3"/>
<circle class="st0" cx="508" cy="170" r="3"/>
<circle class="st0" cx="612" cy="404" r="3"/>
<circle class="st0" cx="768" cy="638" r="3"/>
<circle class="st0" cx="768" cy="690" r="3"/>
<circle class="st0" cx="170" cy="66" r="3"/>
<circle class="st0" cx="274" cy="300" r="3"/>
<circle class="st0" cx="430" cy="222" r="3"/>
<circle class="st0" cx="352" cy="664" r="3"/>
<circle class="st0" cx="14" cy="742" r="3"/>
<circle class="st0" cx="586" cy="508" r="3"/>
<circle class="st0" cx="716" cy="248" r="3"/>
<circle class="st0" cx="716" cy="326" r="3"/>
<circle class="st0" cx="352" cy="404" r="3"/>
<circle class="st0" cx="196" cy="92" r="3"/>
<circle class="st0" cx="430" cy="14" r="3"/>
<circle class="st0" cx="664" cy="248" r="3"/>
<circle class="st0" cx="222" cy="92" r="3"/>
<circle class="st0" cx="352" cy="274" r="3"/>
<circle class="st0" cx="378" cy="222" r="3"/>
<circle class="st0" cx="170" cy="92" r="3"/>
<circle class="st0" cx="482" cy="768" r="3"/>
<circle class="st0" cx="768" cy="664" r="3"/>
<circle class="st0" cx="222" cy="612" r="3"/>
<circle class="st0" cx="508" cy="404" r="3"/>
<circle class="st0" cx="612" cy="742" r="3"/>
<circle class="st0" cx="300" cy="14" r="3"/>
<circle class="st0" cx="222" cy="456" r="3"/>
<circle class="st0" cx="716" cy="664" r="3"/>
<circle class="st0" cx="690" cy="534" r="3"/>
<circle class="st0" cx="742" cy="14" r="3"/>
<circle class="st0" cx="222" cy="742" r="3"/>
<circle class="st0" cx="612" cy="248" r="3"/>
<circle class="st0" cx="170" cy="716" r="3"/>
<circle class="st0" cx="586" cy="196" r="3"/>
<circle class="st0" cx="586" cy="378" r="3"/>
<circle class="st0" cx="586" cy="430" r="3"/>
<circle class="st0" cx="690" cy="248" r="3"/>
<circle class="st0" cx="430" cy="92" r="3"/>
<circle class="st0" cx="430" cy="300" r="3"/>
<circle class="st0" cx="404" cy="222" r="3"/>
<circle class="st0" cx="404" cy="92" r="3"/>
<circle class="st0" cx="404" cy="144" r="3"/>
<circle class="st0" cx="92" cy="170" r="3"/>
<circle class="st0" cx="482" cy="274" r="3"/>
<circle class="st0" cx="482" cy="144" r="3"/>
<circle class="st0" cx="144" cy="170" r="3"/>
<circle class="st0" cx="716" cy="716" r="3"/>
<circle class="st0" cx="716" cy="378" r="3"/>
<circle class="st0" cx="248" cy="326" r="3"/>
<circle class="st0" cx="170" cy="326" r="3"/>
<circle class="st0" cx="638" cy="300" r="3"/>
<circle class="st0" cx="638" cy="716" r="3"/>
<circle class="st0" cx="222" cy="560" r="3"/>
<circle class="st0" cx="222" cy="66" r="3"/>
<circle class="st0" cx="300" cy="690" r="3"/>
<circle class="st0" cx="300" cy="66" r="3"/>
<circle class="st0" cx="560" cy="430" r="3"/>
<circle class="st0" cx="352" cy="144" r="3"/>
<circle class="st0" cx="352" cy="560" r="3"/>
<circle class="st0" cx="352" cy="508" r="3"/>
<circle class="st0" cx="378" cy="716" r="3"/>
<circle class="st0" cx="378" cy="274" r="3"/>
<circle class="st0" cx="378" cy="326" r="3"/>
<circle class="st0" cx="378" cy="508" r="3"/>
<circle class="st0" cx="456" cy="274" r="3"/>
<circle class="st0" cx="456" cy="300" r="3"/>
<circle class="st0" cx="274" cy="560" r="3"/>
<circle class="st0" cx="274" cy="170" r="3"/>
<circle class="st0" cx="326" cy="378" r="3"/>
<circle class="st0" cx="508" cy="456" r="3"/>
<circle class="st0" cx="508" cy="300" r="3"/>
<circle class="st0" cx="118" cy="612" r="3"/>
<circle class="st0" cx="118" cy="638" r="3"/>
<line class="st1" x1="144" y1="170" x2="118" y2="170"/>
<line class="st1" x1="560" y1="430" x2="560" y2="456"/>
<line class="st1" x1="508" y1="300" x2="508" y2="274"/>
<line class="st1" x1="248" y1="482" x2="274" y2="482"/>
<line class="st1" x1="482" y1="274" x2="508" y2="274"/>
<line class="st1" x1="430" y1="300" x2="404" y2="300"/>
<line class="st1" x1="300" y1="40" x2="300" y2="14"/>
<line class="st1" x1="352" y1="430" x2="352" y2="404"/>
<line class="st1" x1="404" y1="222" x2="430" y2="222"/>
<line class="st1" x1="352" y1="508" x2="352" y2="482"/>
<line class="st1" x1="690" y1="248" x2="664" y2="248"/>
<line class="st1" x1="222" y1="638" x2="222" y2="612"/>
<line class="st1" x1="352" y1="560" x2="326" y2="560"/>
<line class="st1" x1="378" y1="118" x2="378" y2="92"/>
<line class="st1" x1="222" y1="66" x2="196" y2="66"/>
<line class="st1" x1="716" y1="248" x2="742" y2="248"/>
<line class="st1" x1="508" y1="690" x2="508" y2="664"/>
<line class="st1" x1="742" y1="456" x2="742" y2="430"/>
<line class="st1" x1="352" y1="638" x2="378" y2="638"/>
<line class="st1" x1="14" y1="196" x2="14" y2="170"/>
<line class="st1" x1="40" y1="170" x2="40" y2="144"/>
<line class="st1" x1="690" y1="248" x2="690" y2="222"/>
<line class="st1" x1="482" y1="456" x2="482" y2="430"/>
<line class="st1" x1="352" y1="690" x2="352" y2="664"/>
<line class="st1" x1="274" y1="118" x2="300" y2="118"/>
<line class="st1" x1="430" y1="378" x2="430" y2="352"/>
<line class="st1" x1="638" y1="716" x2="612" y2="716"/>
<line class="st1" x1="430" y1="92" x2="430" y2="118"/>
<line class="st1" x1="716" y1="716" x2="716" y2="690"/>
<line class="st1" x1="92" y1="92" x2="118" y2="92"/>
<line class="st1" x1="482" y1="768" x2="508" y2="768"/>
<line class="st1" x1="170" y1="66" x2="196" y2="66"/>
<line class="st1" x1="300" y1="456" x2="326" y2="456"/>
<line class="st1" x1="118" y1="66" x2="144" y2="66"/>
<line class="st1" x1="222" y1="716" x2="248" y2="716"/>
<line class="st1" x1="248" y1="326" x2="248" y2="352"/>
<line class="st1" x1="404" y1="326" x2="404" y2="300"/>
<line class="st1" x1="612" y1="404" x2="612" y2="378"/>
<line class="st1" x1="612" y1="742" x2="612" y2="716"/>
<line class="st1" x1="456" y1="274" x2="430" y2="274"/>
<line class="st1" x1="196" y1="170" x2="196" y2="144"/>
<line class="st1" x1="118" y1="638" x2="144" y2="638"/>
<line class="st1" x1="352" y1="144" x2="352" y2="170"/>
<line class="st1" x1="196" y1="92" x2="222" y2="92"/>
<line class="st1" x1="664" y1="144" x2="664" y2="118"/>
<line class="st1" x1="40" y1="560" x2="40" y2="534"/>
<line class="st1" x1="690" y1="716" x2="690" y2="690"/>
<line class="st1" x1="404" y1="560" x2="404" y2="534"/>
<line class="st1" x1="404" y1="404" x2="404" y2="378"/>
<line class="st1" x1="716" y1="482" x2="716" y2="456"/>
<line class="st1" x1="586" y1="40" x2="612" y2="40"/>
<line class="st1" x1="326" y1="118" x2="326" y2="92"/>
<line class="st1" x1="274" y1="352" x2="300" y2="352"/>
<line class="st1" x1="378" y1="508" x2="378" y2="534"/>
<line class="st1" x1="274" y1="14" x2="300" y2="14"/>
<line class="st1" x1="586" y1="742" x2="586" y2="716"/>
<line class="st1" x1="456" y1="612" x2="482" y2="612"/>
<line class="st1" x1="690" y1="352" x2="690" y2="326"/>
<line class="st1" x1="404" y1="92" x2="378" y2="92"/>
<line class="st1" x1="14" y1="144" x2="14" y2="118"/>
<line class="st1" x1="170" y1="742" x2="170" y2="716"/>
<line class="st1" x1="144" y1="508" x2="144" y2="482"/>
<line class="st1" x1="14" y1="222" x2="14" y2="196"/>
<line class="st1" x1="300" y1="560" x2="326" y2="560"/>
<line class="st1" x1="664" y1="456" x2="664" y2="430"/>
<line class="st1" x1="456" y1="274" x2="456" y2="248"/>
<line class="st1" x1="300" y1="690" x2="274" y2="690"/>
<line class="st1" x1="378" y1="222" x2="378" y2="196"/>
<line class="st1" x1="482" y1="716" x2="482" y2="690"/>
<line class="st1" x1="144" y1="768" x2="144" y2="742"/>
<line class="st1" x1="716" y1="716" x2="742" y2="716"/>
<line class="st1" x1="378" y1="274" x2="352" y2="274"/>
<line class="st1" x1="430" y1="586" x2="430" y2="560"/>
<line class="st1" x1="40" y1="222" x2="40" y2="196"/>
<line class="st1" x1="742" y1="638" x2="742" y2="612"/>
<line class="st1" x1="404" y1="92" x2="404" y2="66"/>
<line class="st1" x1="170" y1="326" x2="144" y2="326"/>
<line class="st1" x1="716" y1="274" x2="716" y2="248"/>
<line class="st1" x1="716" y1="560" x2="742" y2="560"/>
<line class="st1" x1="508" y1="456" x2="508" y2="430"/>
<line class="st1" x1="586" y1="196" x2="586" y2="222"/>
<line class="st1" x1="482" y1="274" x2="482" y2="300"/>
<line class="st1" x1="482" y1="222" x2="508" y2="222"/>
<line class="st1" x1="40" y1="66" x2="40" y2="40"/>
<line class="st1" x1="742" y1="534" x2="742" y2="508"/>
<line class="st1" x1="716" y1="378" x2="716" y2="352"/>
<line class="st1" x1="196" y1="118" x2="196" y2="92"/>
<line class="st1" x1="638" y1="456" x2="638" y2="430"/>
<line class="st1" x1="170" y1="92" x2="170" y2="66"/>
<line class="st1" x1="586" y1="768" x2="586" y2="742"/>
<line class="st1" x1="404" y1="508" x2="404" y2="482"/>
<line class="st1" x1="664" y1="586" x2="664" y2="560"/>
<line class="st1" x1="274" y1="638" x2="300" y2="638"/>
<line class="st1" x1="118" y1="404" x2="118" y2="378"/>
<line class="st1" x1="404" y1="222" x2="378" y2="222"/>
<line class="st1" x1="378" y1="326" x2="404" y2="326"/>
<line class="st1" x1="14" y1="508" x2="14" y2="482"/>
<line class="st1" x1="378" y1="274" x2="404" y2="274"/>
<line class="st1" x1="664" y1="170" x2="664" y2="144"/>
<line class="st1" x1="378" y1="508" x2="378" y2="482"/>
<line class="st1" x1="196" y1="664" x2="196" y2="638"/>
<line class="st1" x1="586" y1="482" x2="612" y2="482"/>
<line class="st1" x1="378" y1="716" x2="352" y2="716"/>
<line class="st1" x1="508" y1="300" x2="482" y2="300"/>
<line class="st1" x1="742" y1="248" x2="768" y2="248"/>
<line class="st1" x1="92" y1="170" x2="118" y2="170"/>
<line class="st1" x1="638" y1="482" x2="638" y2="456"/>
<line class="st1" x1="352" y1="508" x2="326" y2="508"/>
<line class="st1" x1="716" y1="326" x2="716" y2="300"/>
<line class="st1" x1="378" y1="716" x2="378" y2="742"/>
<line class="st1" x1="716" y1="118" x2="716" y2="92"/>
<line class="st1" x1="274" y1="716" x2="274" y2="690"/>
<line class="st1" x1="742" y1="586" x2="742" y2="560"/>
<line class="st1" x1="690" y1="248" x2="690" y2="274"/>
<line class="st1" x1="352" y1="144" x2="352" y2="118"/>
<line class="st1" x1="222" y1="560" x2="196" y2="560"/>
<line class="st1" x1="222" y1="482" x2="222" y2="456"/>
<line class="st1" x1="612" y1="404" x2="638" y2="404"/>
<line class="st1" x1="716" y1="716" x2="716" y2="742"/>
<line class="st1" x1="274" y1="170" x2="274" y2="144"/>
<line class="st1" x1="222" y1="560" x2="222" y2="586"/>
<line class="st1" x1="170" y1="170" x2="170" y2="144"/>
<line class="st1" x1="690" y1="716" x2="690" y2="742"/>
<line class="st1" x1="508" y1="768" x2="508" y2="742"/>
<line class="st1" x1="248" y1="352" x2="274" y2="352"/>
<line class="st1" x1="118" y1="638" x2="92" y2="638"/>
<line class="st1" x1="40" y1="534" x2="40" y2="508"/>
<line class="st1" x1="586" y1="196" x2="560" y2="196"/>
<line class="st1" x1="170" y1="482" x2="196" y2="482"/>
<line class="st1" x1="14" y1="14" x2="40" y2="14"/>
<line class="st1" x1="560" y1="144" x2="560" y2="118"/>
<line class="st1" x1="326" y1="690" x2="326" y2="664"/>
<line class="st1" x1="768" y1="40" x2="768" y2="14"/>
<line class="st1" x1="248" y1="742" x2="248" y2="716"/>
<line class="st1" x1="378" y1="664" x2="378" y2="638"/>
<line class="st1" x1="586" y1="222" x2="612" y2="222"/>
<line class="st1" x1="248" y1="612" x2="248" y2="586"/>
<line class="st1" x1="326" y1="14" x2="352" y2="14"/>
<line class="st1" x1="404" y1="144" x2="404" y2="170"/>
<line class="st1" x1="534" y1="768" x2="534" y2="742"/>
<line class="st1" x1="300" y1="196" x2="300" y2="170"/>
<line class="st1" x1="742" y1="404" x2="742" y2="378"/>
<line class="st1" x1="170" y1="326" x2="170" y2="300"/>
<line class="st1" x1="742" y1="690" x2="768" y2="690"/>
<line class="st1" x1="222" y1="742" x2="248" y2="742"/>
<line class="st1" x1="560" y1="300" x2="560" y2="274"/>
<line class="st1" x1="14" y1="560" x2="14" y2="534"/>
<line class="st1" x1="378" y1="716" x2="404" y2="716"/>
<line class="st1" x1="144" y1="144" x2="144" y2="118"/>
<line class="st1" x1="482" y1="274" x2="482" y2="248"/>
<line class="st1" x1="404" y1="222" x2="404" y2="196"/>
<line class="st1" x1="664" y1="768" x2="664" y2="742"/>
<line class="st1" x1="508" y1="66" x2="508" y2="40"/>
<line class="st1" x1="638" y1="508" x2="638" y2="482"/>
<line class="st1" x1="586" y1="196" x2="586" y2="170"/>
<line class="st1" x1="14" y1="560" x2="40" y2="560"/>
<line class="st1" x1="92" y1="352" x2="118" y2="352"/>
<line class="st1" x1="716" y1="352" x2="716" y2="326"/>
<line class="st1" x1="560" y1="118" x2="560" y2="92"/>
<line class="st1" x1="638" y1="716" x2="638" y2="742"/>
<line class="st1" x1="690" y1="248" x2="716" y2="248"/>
<line class="st1" x1="222" y1="66" x2="248" y2="66"/>
<line class="st1" x1="482" y1="326" x2="482" y2="300"/>
<line class="st1" x1="326" y1="300" x2="326" y2="274"/>
<line class="st1" x1="274" y1="170" x2="300" y2="170"/>
<line class="st1" x1="352" y1="196" x2="352" y2="170"/>
<line class="st1" x1="14" y1="170" x2="40" y2="170"/>
<line class="st1" x1="300" y1="508" x2="300" y2="482"/>
<line class="st1" x1="144" y1="352" x2="144" y2="326"/>
<line class="st1" x1="560" y1="300" x2="560" y2="326"/>
<line class="st1" x1="222" y1="66" x2="222" y2="92"/>
<line class="st1" x1="144" y1="92" x2="144" y2="66"/>
<line class="st1" x1="14" y1="534" x2="14" y2="508"/>
<line class="st1" x1="430" y1="92" x2="456" y2="92"/>
<line class="st1" x1="248" y1="664" x2="248" y2="638"/>
<line class="st1" x1="274" y1="560" x2="300" y2="560"/>
<line class="st1" x1="196" y1="326" x2="196" y2="352"/>
<line class="st1" x1="222" y1="742" x2="222" y2="716"/>
<line class="st1" x1="248" y1="326" x2="248" y2="300"/>
<line class="st1" x1="144" y1="170" x2="144" y2="144"/>
<line class="st1" x1="612" y1="222" x2="612" y2="196"/>
<line class="st1" x1="300" y1="690" x2="326" y2="690"/>
<line class="st1" x1="274" y1="352" x2="274" y2="326"/>
<line class="st1" x1="768" y1="664" x2="768" y2="638"/>
<line class="st1" x1="768" y1="300" x2="768" y2="274"/>
<line class="st1" x1="716" y1="378" x2="716" y2="404"/>
<line class="st1" x1="586" y1="378" x2="560" y2="378"/>
<line class="st1" x1="716" y1="378" x2="742" y2="378"/>
<line class="st1" x1="508" y1="456" x2="482" y2="456"/>
<line class="st1" x1="612" y1="482" x2="612" y2="456"/>
<line class="st1" x1="638" y1="430" x2="638" y2="404"/>
<line class="st1" x1="14" y1="92" x2="14" y2="66"/>
<line class="st1" x1="508" y1="300" x2="508" y2="326"/>
<line class="st1" x1="586" y1="196" x2="612" y2="196"/>
<line class="st1" x1="586" y1="378" x2="612" y2="378"/>
<line class="st1" x1="534" y1="248" x2="534" y2="222"/>
<line class="st1" x1="560" y1="716" x2="560" y2="690"/>
<line class="st1" x1="274" y1="144" x2="274" y2="118"/>
<line class="st1" x1="300" y1="66" x2="300" y2="40"/>
<line class="st1" x1="352" y1="482" x2="378" y2="482"/>
<line class="st1" x1="352" y1="742" x2="352" y2="716"/>
<line class="st1" x1="430" y1="300" x2="430" y2="274"/>
<line class="st1" x1="248" y1="326" x2="274" y2="326"/>
<line class="st1" x1="144" y1="716" x2="144" y2="690"/>
<line class="st1" x1="404" y1="586" x2="404" y2="560"/>
<line class="st1" x1="118" y1="612" x2="118" y2="586"/>
<line class="st1" x1="378" y1="716" x2="378" y2="690"/>
<line class="st1" x1="638" y1="300" x2="664" y2="300"/>
<line class="st1" x1="482" y1="144" x2="508" y2="144"/>
<line class="st1" x1="508" y1="664" x2="508" y2="638"/>
<line class="st1" x1="144" y1="664" x2="144" y2="638"/>
<line class="st1" x1="196" y1="326" x2="196" y2="300"/>
<line class="st1" x1="274" y1="456" x2="274" y2="430"/>
<line class="st1" x1="534" y1="716" x2="560" y2="716"/>
<line class="st1" x1="638" y1="716" x2="638" y2="690"/>
<line class="st1" x1="586" y1="508" x2="586" y2="482"/>
<line class="st1" x1="378" y1="508" x2="404" y2="508"/>
<line class="st1" x1="456" y1="248" x2="482" y2="248"/>
<line class="st1" x1="534" y1="378" x2="560" y2="378"/>
<line class="st1" x1="430" y1="300" x2="430" y2="326"/>
<line class="st1" x1="456" y1="300" x2="482" y2="300"/>
<line class="st1" x1="274" y1="326" x2="274" y2="300"/>
<line class="st1" x1="612" y1="300" x2="612" y2="326"/>
<line class="st1" x1="326" y1="274" x2="352" y2="274"/>
<line class="st1" x1="118" y1="248" x2="118" y2="222"/>
<line class="st1" x1="300" y1="456" x2="300" y2="430"/>
<line class="st1" x1="118" y1="612" x2="144" y2="612"/>
<line class="st1" x1="482" y1="768" x2="482" y2="716"/>
<line class="st1" x1="66" y1="664" x2="66" y2="612"/>
<line class="st1" x1="404" y1="768" x2="404" y2="716"/>
<line class="st1" x1="586" y1="92" x2="586" y2="40"/>
<line class="st1" x1="586" y1="378" x2="586" y2="326"/>
<line class="st1" x1="664" y1="300" x2="664" y2="248"/>
<line class="st1" x1="196" y1="638" x2="196" y2="586"/>
<line class="st1" x1="66" y1="586" x2="118" y2="586"/>
<line class="st1" x1="222" y1="66" x2="222" y2="14"/>
<line class="st1" x1="508" y1="456" x2="560" y2="456"/>
<line class="st1" x1="326" y1="378" x2="378" y2="378"/>
<line class="st1" x1="326" y1="248" x2="326" y2="196"/>
<line class="st1" x1="430" y1="274" x2="430" y2="222"/>
<line class="st1" x1="352" y1="274" x2="352" y2="222"/>
<line class="st1" x1="690" y1="586" x2="690" y2="534"/>
<line class="st1" x1="222" y1="716" x2="222" y2="664"/>
<line class="st1" x1="768" y1="742" x2="768" y2="690"/>
<line class="st1" x1="586" y1="430" x2="638" y2="430"/>
<line class="st1" x1="300" y1="66" x2="248" y2="66"/>
<line class="st1" x1="196" y1="170" x2="196" y2="222"/>
<line class="st1" x1="92" y1="170" x2="92" y2="222"/>
<line class="st1" x1="196" y1="560" x2="196" y2="508"/>
<line class="st1" x1="300" y1="690" x2="300" y2="638"/>
<line class="st1" x1="326" y1="378" x2="326" y2="326"/>
<line class="st1" x1="742" y1="768" x2="742" y2="716"/>
<line class="st1" x1="664" y1="664" x2="664" y2="612"/>
<line class="st1" x1="326" y1="768" x2="326" y2="716"/>
<line class="st1" x1="560" y1="430" x2="560" y2="378"/>
<line class="st1" x1="118" y1="66" x2="118" y2="14"/>
<line class="st1" x1="170" y1="742" x2="222" y2="742"/>
<line class="st1" x1="118" y1="612" x2="66" y2="612"/>
<line class="st1" x1="92" y1="690" x2="92" y2="638"/>
<line class="st1" x1="638" y1="300" x2="638" y2="352"/>
<line class="st1" x1="66" y1="768" x2="66" y2="716"/>
<line class="st1" x1="560" y1="430" x2="508" y2="430"/>
<line class="st1" x1="404" y1="66" x2="404" y2="14"/>
<line class="st1" x1="66" y1="586" x2="66" y2="534"/>
<line class="st1" x1="430" y1="456" x2="430" y2="404"/>
<line class="st1" x1="664" y1="118" x2="716" y2="118"/>
<line class="st1" x1="430" y1="456" x2="482" y2="456"/>
<line class="st1" x1="716" y1="378" x2="664" y2="378"/>
<line class="st1" x1="274" y1="768" x2="274" y2="716"/>
<line class="st1" x1="300" y1="690" x2="300" y2="742"/>
<line class="st1" x1="534" y1="170" x2="534" y2="118"/>
<line class="st1" x1="508" y1="222" x2="508" y2="170"/>
<line class="st1" x1="612" y1="560" x2="612" y2="508"/>
<line class="st1" x1="222" y1="560" x2="222" y2="508"/>
<line class="st1" x1="690" y1="534" x2="742" y2="534"/>
<line class="st1" x1="378" y1="326" x2="326" y2="326"/>
<line class="st1" x1="430" y1="14" x2="482" y2="14"/>
<line class="st1" x1="560" y1="196" x2="560" y2="144"/>
<line class="st1" x1="508" y1="404" x2="508" y2="352"/>
<line class="st1" x1="170" y1="716" x2="222" y2="716"/>
<line class="st1" x1="300" y1="66" x2="300" y2="118"/>
<line class="st1" x1="144" y1="612" x2="144" y2="560"/>
<line class="st1" x1="664" y1="300" x2="716" y2="300"/>
<line class="st1" x1="118" y1="482" x2="118" y2="430"/>
<line class="st1" x1="326" y1="560" x2="326" y2="508"/>
<line class="st1" x1="378" y1="326" x2="378" y2="378"/>
<line class="st1" x1="352" y1="560" x2="404" y2="560"/>
<line class="st1" x1="534" y1="300" x2="534" y2="248"/>
<line class="st1" x1="742" y1="690" x2="742" y2="638"/>
<line class="st1" x1="144" y1="118" x2="196" y2="118"/>
<line class="st1" x1="482" y1="144" x2="482" y2="92"/>
<line class="st1" x1="534" y1="612" x2="534" y2="560"/>
<line class="st1" x1="456" y1="560" x2="456" y2="508"/>
<line class="st1" x1="430" y1="638" x2="430" y2="586"/>
<line class="st1" x1="690" y1="664" x2="690" y2="612"/>
<line class="st1" x1="66" y1="508" x2="66" y2="456"/>
<line class="st1" x1="430" y1="92" x2="430" y2="40"/>
<line class="st1" x1="612" y1="300" x2="612" y2="248"/>
<line class="st1" x1="92" y1="170" x2="92" y2="118"/>
<line class="st1" x1="40" y1="690" x2="92" y2="690"/>
<line class="st1" x1="664" y1="430" x2="664" y2="378"/>
<line class="st1" x1="14" y1="300" x2="14" y2="248"/>
<line class="st1" x1="248" y1="482" x2="248" y2="430"/>
<line class="st1" x1="378" y1="274" x2="378" y2="222"/>
<line class="st1" x1="586" y1="430" x2="586" y2="482"/>
<line class="st1" x1="92" y1="170" x2="40" y2="170"/>
<line class="st1" x1="508" y1="456" x2="508" y2="508"/>
<line class="st1" x1="300" y1="612" x2="300" y2="560"/>
<line class="st1" x1="404" y1="222" x2="404" y2="274"/>
<line class="st1" x1="248" y1="430" x2="248" y2="378"/>
<line class="st1" x1="534" y1="300" x2="534" y2="378"/>
<line class="st1" x1="170" y1="326" x2="170" y2="404"/>
<line class="st1" x1="456" y1="690" x2="456" y2="612"/>
<line class="st1" x1="144" y1="456" x2="144" y2="378"/>
<line class="st1" x1="638" y1="482" x2="716" y2="482"/>
<line class="st1" x1="638" y1="638" x2="638" y2="560"/>
<line class="st1" x1="352" y1="144" x2="274" y2="144"/>
<line class="st1" x1="118" y1="170" x2="118" y2="92"/>
<line class="st1" x1="14" y1="742" x2="14" y2="664"/>
<line class="st1" x1="352" y1="560" x2="352" y2="638"/>
<line class="st1" x1="456" y1="300" x2="456" y2="378"/>
<line class="st1" x1="274" y1="560" x2="274" y2="638"/>
<line class="st1" x1="170" y1="482" x2="170" y2="404"/>
<line class="st1" x1="40" y1="690" x2="40" y2="612"/>
<line class="st1" x1="508" y1="144" x2="508" y2="66"/>
<line class="st1" x1="326" y1="378" x2="248" y2="378"/>
<line class="st1" x1="92" y1="430" x2="92" y2="352"/>
<line class="st1" x1="638" y1="92" x2="638" y2="14"/>
<line class="st1" x1="326" y1="378" x2="326" y2="456"/>
<line class="st1" x1="274" y1="170" x2="274" y2="248"/>
<line class="st1" x1="66" y1="92" x2="66" y2="14"/>
<line class="st1" x1="482" y1="690" x2="482" y2="612"/>
<line class="st1" x1="664" y1="768" x2="742" y2="768"/>
<line class="st1" x1="612" y1="144" x2="612" y2="66"/>
<line class="st1" x1="144" y1="170" x2="144" y2="248"/>
<line class="st1" x1="456" y1="248" x2="456" y2="170"/>
<line class="st1" x1="248" y1="144" x2="248" y2="66"/>
<line class="st1" x1="534" y1="248" x2="612" y2="248"/>
<line class="st1" x1="482" y1="144" x2="482" y2="222"/>
<line class="st1" x1="196" y1="482" x2="196" y2="404"/>
<line class="st1" x1="534" y1="716" x2="534" y2="638"/>
<line class="st1" x1="118" y1="352" x2="118" y2="274"/>
<line class="st1" x1="14" y1="118" x2="92" y2="118"/>
<line class="st1" x1="274" y1="560" x2="274" y2="482"/>
<line class="st1" x1="716" y1="664" x2="716" y2="560"/>
<line class="st1" x1="482" y1="586" x2="482" y2="482"/>
<line class="st1" x1="118" y1="638" x2="118" y2="742"/>
<line class="st1" x1="560" y1="612" x2="560" y2="508"/>
<line class="st1" x1="664" y1="118" x2="664" y2="14"/>
<line class="st1" x1="716" y1="222" x2="716" y2="118"/>
<line class="st1" x1="300" y1="66" x2="404" y2="66"/>
<line class="st1" x1="326" y1="456" x2="430" y2="456"/>
<line class="st1" x1="40" y1="352" x2="40" y2="248"/>
<line class="st1" x1="40" y1="456" x2="40" y2="352"/>
<line class="st1" x1="638" y1="300" x2="638" y2="196"/>
<line class="st1" x1="92" y1="326" x2="92" y2="222"/>
<line class="st1" x1="404" y1="716" x2="404" y2="586"/>
<line class="st1" x1="742" y1="196" x2="742" y2="66"/>
<line class="st1" x1="742" y1="378" x2="742" y2="248"/>
<line class="st1" x1="768" y1="248" x2="768" y2="118"/>
<line class="st1" x1="66" y1="430" x2="66" y2="300"/>
<line class="st1" x1="508" y1="14" x2="638" y2="14"/>
<line class="st1" x1="170" y1="170" x2="170" y2="300"/>
<line class="st1" x1="768" y1="560" x2="768" y2="404"/>
<line class="st1" x1="300" y1="352" x2="300" y2="196"/>
<line class="st1" x1="14" y1="456" x2="14" y2="300"/>
<line class="st1" x1="586" y1="690" x2="586" y2="508"/>
<line class="st1" x1="144" y1="352" x2="144" y2="378"/>
<line class="st1" x1="664" y1="14" x2="638" y2="14"/>
<line class="st1" x1="612" y1="40" x2="612" y2="66"/>
<line class="st1" x1="560" y1="378" x2="560" y2="326"/>
<line class="st1" x1="560" y1="118" x2="534" y2="118"/>
<line class="st1" x1="612" y1="326" x2="586" y2="326"/>
<line class="st1" x1="248" y1="430" x2="274" y2="430"/>
<line class="st1" x1="300" y1="742" x2="248" y2="742"/>
<line class="st1" x1="196" y1="352" x2="248" y2="352"/>
<line class="st1" x1="560" y1="326" x2="586" y2="326"/>
<line class="st1" x1="612" y1="456" x2="638" y2="456"/>
<line class="st1" x1="144" y1="742" x2="118" y2="742"/>
<line class="st1" x1="586" y1="768" x2="534" y2="768"/>
<line class="st1" x1="586" y1="326" x2="586" y2="222"/>
<line class="st1" x1="40" y1="508" x2="66" y2="508"/>
<line class="st1" x1="144" y1="92" x2="170" y2="92"/>
<line class="st1" x1="92" y1="638" x2="92" y2="430"/>
<line class="st1" x1="716" y1="690" x2="690" y2="690"/>
<line class="st1" x1="768" y1="742" x2="716" y2="742"/>
<line class="st1" x1="66" y1="456" x2="40" y2="456"/>
<line class="st1" x1="196" y1="586" x2="196" y2="560"/>
<line class="st1" x1="144" y1="768" x2="66" y2="768"/>
<line class="st1" x1="14" y1="196" x2="40" y2="196"/>
<line class="st1" x1="196" y1="508" x2="196" y2="482"/>
<line class="st1" x1="742" y1="508" x2="742" y2="456"/>
<line class="st1" x1="378" y1="92" x2="326" y2="92"/>
<line class="st1" x1="14" y1="170" x2="14" y2="144"/>
<line class="st1" x1="14" y1="300" x2="66" y2="300"/>
<line class="st1" x1="66" y1="430" x2="66" y2="456"/>
<line class="st1" x1="326" y1="274" x2="326" y2="248"/>
<line class="st1" x1="508" y1="690" x2="482" y2="690"/>
<line class="st1" x1="118" y1="482" x2="144" y2="482"/>
<line class="st1" x1="378" y1="534" x2="404" y2="534"/>
<line class="st1" x1="768" y1="14" x2="742" y2="14"/>
<line class="st1" x1="40" y1="170" x2="40" y2="196"/>
<line class="st1" x1="196" y1="222" x2="118" y2="222"/>
<line class="st1" x1="118" y1="66" x2="118" y2="92"/>
<line class="st1" x1="248" y1="638" x2="274" y2="638"/>
<line class="st1" x1="274" y1="326" x2="326" y2="326"/>
<line class="st1" x1="482" y1="456" x2="482" y2="482"/>
<line class="st1" x1="14" y1="66" x2="40" y2="66"/>
<line class="st1" x1="14" y1="534" x2="40" y2="534"/>
<line class="st1" x1="352" y1="742" x2="378" y2="742"/>
<line class="st1" x1="742" y1="248" x2="742" y2="196"/>
<line class="st1" x1="638" y1="638" x2="638" y2="690"/>
<line class="st1" x1="144" y1="716" x2="144" y2="742"/>
<line class="st1" x1="170" y1="742" x2="144" y2="742"/>
<line class="st1" x1="482" y1="14" x2="508" y2="14"/>
<line class="st1" x1="664" y1="768" x2="586" y2="768"/>
<line class="st1" x1="534" y1="612" x2="534" y2="638"/>
<line class="st1" x1="612" y1="560" x2="638" y2="560"/>
<line class="st1" x1="326" y1="560" x2="326" y2="664"/>
<line class="st1" x1="560" y1="40" x2="586" y2="40"/>
<line class="st1" x1="92" y1="430" x2="118" y2="430"/>
<line class="st1" x1="534" y1="560" x2="456" y2="560"/>
<line class="st1" x1="612" y1="66" x2="534" y2="66"/>
<line class="st1" x1="508" y1="222" x2="534" y2="222"/>
<line class="st1" x1="14" y1="560" x2="14" y2="664"/>
<line class="st1" x1="430" y1="404" x2="404" y2="404"/>
<line class="st1" x1="742" y1="456" x2="716" y2="456"/>
<line class="st1" x1="118" y1="404" x2="118" y2="430"/>
<line class="st1" x1="14" y1="14" x2="14" y2="66"/>
<line class="st1" x1="66" y1="612" x2="66" y2="586"/>
<line class="st1" x1="690" y1="352" x2="716" y2="352"/>
<line class="st1" x1="768" y1="40" x2="768" y2="118"/>
<line class="st1" x1="40" y1="456" x2="14" y2="456"/>
<line class="st1" x1="482" y1="716" x2="534" y2="716"/>
<line class="st1" x1="768" y1="248" x2="768" y2="274"/>
<line class="st1" x1="690" y1="690" x2="690" y2="664"/>
<line class="st1" x1="768" y1="300" x2="716" y2="300"/>
<line class="st1" x1="40" y1="560" x2="40" y2="612"/>
<line class="st1" x1="664" y1="586" x2="690" y2="586"/>
<line class="st1" x1="430" y1="638" x2="378" y2="638"/>
<line class="st1" x1="690" y1="742" x2="664" y2="742"/>
<line class="st1" x1="768" y1="118" x2="716" y2="118"/>
<line class="st1" x1="170" y1="404" x2="196" y2="404"/>
<line class="st1" x1="40" y1="40" x2="40" y2="14"/>
<line class="st1" x1="664" y1="742" x2="638" y2="742"/>
<line class="st1" x1="248" y1="612" x2="222" y2="612"/>
<line class="st1" x1="612" y1="508" x2="586" y2="508"/>
<line class="st1" x1="534" y1="716" x2="534" y2="742"/>
<line class="st1" x1="14" y1="92" x2="14" y2="118"/>
<line class="st1" x1="430" y1="352" x2="430" y2="326"/>
<line class="st1" x1="118" y1="248" x2="144" y2="248"/>
<line class="st1" x1="716" y1="300" x2="716" y2="274"/>
<line class="st1" x1="534" y1="66" x2="508" y2="66"/>
<line class="st1" x1="352" y1="430" x2="300" y2="430"/>
<line class="st1" x1="170" y1="482" x2="144" y2="482"/>
<line class="st1" x1="664" y1="664" x2="690" y2="664"/>
<line class="st1" x1="144" y1="560" x2="144" y2="508"/>
<line class="st1" x1="690" y1="326" x2="716" y2="326"/>
<line class="st1" x1="430" y1="118" x2="378" y2="118"/>
<line class="st1" x1="638" y1="196" x2="612" y2="196"/>
<line class="st1" x1="560" y1="508" x2="586" y2="508"/>
<line class="st1" x1="326" y1="14" x2="300" y2="14"/>
<line class="st1" x1="742" y1="560" x2="768" y2="560"/>
<line class="st1" x1="300" y1="508" x2="326" y2="508"/>
<line class="st1" x1="248" y1="586" x2="222" y2="586"/>
<line class="st1" x1="352" y1="690" x2="352" y2="716"/>
<line class="st1" x1="222" y1="482" x2="196" y2="482"/>
<line class="st1" x1="326" y1="768" x2="274" y2="768"/>
<line class="st1" x1="170" y1="14" x2="170" y2="66"/>
<line class="st1" x1="768" y1="404" x2="742" y2="404"/>
<line class="st1" x1="66" y1="14" x2="40" y2="14"/>
<line class="st1" x1="404" y1="170" x2="404" y2="196"/>
<line class="st1" x1="508" y1="352" x2="508" y2="326"/>
<line class="st1" x1="768" y1="638" x2="742" y2="638"/>
<circle class="st2" cx="14" cy="222" r="3"/>
<circle class="st3" cx="14" cy="248" r="3"/>
<circle class="st0" cx="92" cy="612" r="3"/>
<circle class="st0" cx="92" cy="586" r="3"/>
<circle class="st0" cx="40" cy="300" r="3"/>
<circle class="st0" cx="742" cy="118" r="3"/>
<circle class="st0" cx="444" cy="537" r="3"/>
<circle class="st0" cx="482" cy="560" r="3"/>
<circle class="st0" cx="326" cy="608" r="3"/>
<circle class="st0" cx="274" cy="742" r="3"/>
<circle class="st0" cx="144" cy="222" r="3"/>
<circle class="st0" cx="170" cy="222" r="3"/>
<circle class="st0" cx="300" cy="326" r="3"/>
</svg>
